<mxfile host="app.diagrams.net" agent="Mozilla/5.0 (Macintosh; Intel Mac OS X 10_15_7) AppleWebKit/537.36 (KHTML, like Gecko) Chrome/127.0.0.0 Safari/537.36" version="24.7.7" pages="2">
  <diagram name="Kalender" id="cYS-9EuOB4i6pcKZ9MJi">
    <mxGraphModel dx="4474" dy="2681" grid="1" gridSize="10" guides="1" tooltips="1" connect="1" arrows="1" fold="1" page="1" pageScale="1" pageWidth="827" pageHeight="1169" math="0" shadow="0">
      <root>
        <mxCell id="0" />
        <mxCell id="1" parent="0" />
        <mxCell id="hZRU2H-SfIQ9f5EC4YqQ-72" value="" style="rounded=1;whiteSpace=wrap;html=1;arcSize=2;strokeColor=#4F688C;" parent="1" vertex="1">
          <mxGeometry x="130" y="-740" width="550" height="820" as="geometry" />
        </mxCell>
        <mxCell id="5YDPGhxfkZ1rQy1-W0EN-1" value="&lt;font style=&quot;font-size: 24px;&quot; color=&quot;#ffffff&quot;&gt;&lt;b&gt;Mockup Kalender Service-Team Startseite&lt;/b&gt;&lt;/font&gt;" style="rounded=0;whiteSpace=wrap;html=1;fillColor=#6a00ff;strokeColor=#3700CC;fontColor=#ffffff;" parent="1" vertex="1">
          <mxGeometry x="-827" y="-1130" width="827" height="70" as="geometry" />
        </mxCell>
        <mxCell id="zZJHMVHqWspqlWFaA559-3" value="" style="shape=table;childLayout=tableLayout;startSize=0;collapsible=0;recursiveResize=0;expand=0;dashed=1;" parent="1" vertex="1">
          <mxGeometry x="-801" y="-830" width="775" height="551" as="geometry" />
        </mxCell>
        <mxCell id="zZJHMVHqWspqlWFaA559-4" value="Zeitslot 1                " style="shape=tableRow;horizontal=0;swimlaneHead=0;swimlaneBody=0;top=0;left=0;bottom=0;right=0;dropTarget=0;fontStyle=0;points=[[0,0.5],[1,0.5]];portConstraint=eastwest;startSize=40;collapsible=0;recursiveResize=0;expand=0;fillColor=default;dashed=1;" parent="zZJHMVHqWspqlWFaA559-3" vertex="1">
          <mxGeometry width="775" height="170" as="geometry" />
        </mxCell>
        <mxCell id="zZJHMVHqWspqlWFaA559-5" value="Montag&#xa;Datum" style="swimlane;swimlaneHead=0;swimlaneBody=0;fontStyle=0;connectable=0;startSize=60;collapsible=0;recursiveResize=0;expand=0;dashed=1;" parent="zZJHMVHqWspqlWFaA559-4" vertex="1">
          <mxGeometry x="40" width="105" height="170" as="geometry">
            <mxRectangle width="105" height="170" as="alternateBounds" />
          </mxGeometry>
        </mxCell>
        <mxCell id="6n-yQPafIiMLYWiK96yH-6" value="&lt;div align=&quot;left&quot;&gt;&lt;div align=&quot;left&quot;&gt;&lt;font color=&quot;#4f688c&quot;&gt;Eintrag gebuchter Termin mit allen Details&lt;/font&gt;&lt;/div&gt;&lt;font color=&quot;#4f688c&quot;&gt;&lt;/font&gt;&lt;/div&gt;" style="rounded=0;whiteSpace=wrap;html=1;fillColor=#dae8fc;strokeColor=#6c8ebf;" parent="zZJHMVHqWspqlWFaA559-5" vertex="1">
          <mxGeometry x="-1.39" y="60" width="105" height="110" as="geometry" />
        </mxCell>
        <mxCell id="zZJHMVHqWspqlWFaA559-6" value="Dienstag&#xa;Datum" style="swimlane;swimlaneHead=0;swimlaneBody=0;fontStyle=0;connectable=0;startSize=60;collapsible=0;recursiveResize=0;expand=0;dashed=1;" parent="zZJHMVHqWspqlWFaA559-4" vertex="1">
          <mxGeometry x="145" width="105" height="170" as="geometry">
            <mxRectangle width="105" height="170" as="alternateBounds" />
          </mxGeometry>
        </mxCell>
        <mxCell id="zZJHMVHqWspqlWFaA559-7" value="Mittwoch&#xa;Datum" style="swimlane;swimlaneHead=0;swimlaneBody=0;fontStyle=0;connectable=0;startSize=60;collapsible=0;recursiveResize=0;expand=0;dashed=1;" parent="zZJHMVHqWspqlWFaA559-4" vertex="1">
          <mxGeometry x="250" width="105" height="170" as="geometry">
            <mxRectangle width="105" height="170" as="alternateBounds" />
          </mxGeometry>
        </mxCell>
        <mxCell id="zZJHMVHqWspqlWFaA559-8" value="Donnerstag&#xa;Datum" style="swimlane;swimlaneHead=0;swimlaneBody=0;fontStyle=0;connectable=0;startSize=60;collapsible=0;recursiveResize=0;expand=0;dashed=1;" parent="zZJHMVHqWspqlWFaA559-4" vertex="1">
          <mxGeometry x="355" width="105" height="170" as="geometry">
            <mxRectangle width="105" height="170" as="alternateBounds" />
          </mxGeometry>
        </mxCell>
        <mxCell id="zZJHMVHqWspqlWFaA559-9" value="Freitag&#xa;Datum" style="swimlane;swimlaneHead=0;swimlaneBody=0;fontStyle=0;connectable=0;startSize=60;collapsible=0;recursiveResize=0;expand=0;dashed=1;" parent="zZJHMVHqWspqlWFaA559-4" vertex="1">
          <mxGeometry x="460" width="105" height="170" as="geometry">
            <mxRectangle width="105" height="170" as="alternateBounds" />
          </mxGeometry>
        </mxCell>
        <mxCell id="zZJHMVHqWspqlWFaA559-10" value="Samstag&#xa;Datum" style="swimlane;swimlaneHead=0;swimlaneBody=0;fontStyle=0;connectable=0;startSize=60;collapsible=0;recursiveResize=0;expand=0;dashed=1;" parent="zZJHMVHqWspqlWFaA559-4" vertex="1">
          <mxGeometry x="565" width="105" height="170" as="geometry">
            <mxRectangle width="105" height="170" as="alternateBounds" />
          </mxGeometry>
        </mxCell>
        <mxCell id="zZJHMVHqWspqlWFaA559-11" value="Sonntag&#xa;Datum" style="swimlane;swimlaneHead=0;swimlaneBody=0;fontStyle=0;strokeColor=inherit;connectable=0;fillColor=none;startSize=60;collapsible=0;recursiveResize=0;expand=0;dashed=1;" parent="zZJHMVHqWspqlWFaA559-4" vertex="1">
          <mxGeometry x="670" width="105" height="170" as="geometry">
            <mxRectangle width="105" height="170" as="alternateBounds" />
          </mxGeometry>
        </mxCell>
        <mxCell id="zZJHMVHqWspqlWFaA559-13" value="Zeitslot 2" style="shape=tableRow;horizontal=0;swimlaneHead=0;swimlaneBody=0;top=0;left=0;bottom=0;right=0;dropTarget=0;fontStyle=0;points=[[0,0.5],[1,0.5]];portConstraint=eastwest;startSize=40;collapsible=0;recursiveResize=0;expand=0;dashed=1;" parent="zZJHMVHqWspqlWFaA559-3" vertex="1">
          <mxGeometry y="170" width="775" height="126" as="geometry" />
        </mxCell>
        <mxCell id="zZJHMVHqWspqlWFaA559-14" value="" style="swimlane;swimlaneHead=0;swimlaneBody=0;fontStyle=0;connectable=0;startSize=0;collapsible=0;recursiveResize=0;expand=0;dashed=1;" parent="zZJHMVHqWspqlWFaA559-13" vertex="1">
          <mxGeometry x="40" width="105" height="126" as="geometry">
            <mxRectangle width="105" height="126" as="alternateBounds" />
          </mxGeometry>
        </mxCell>
        <mxCell id="zZJHMVHqWspqlWFaA559-15" value="" style="swimlane;swimlaneHead=0;swimlaneBody=0;fontStyle=0;connectable=0;startSize=0;collapsible=0;recursiveResize=0;expand=0;dashed=1;" parent="zZJHMVHqWspqlWFaA559-13" vertex="1">
          <mxGeometry x="145" width="105" height="126" as="geometry">
            <mxRectangle width="105" height="126" as="alternateBounds" />
          </mxGeometry>
        </mxCell>
        <mxCell id="6n-yQPafIiMLYWiK96yH-1" value="&lt;div align=&quot;left&quot;&gt;&lt;font color=&quot;#4f688c&quot;&gt;Eintrag gebuchter Termin mit allen Details&lt;/font&gt;&lt;/div&gt;" style="rounded=0;whiteSpace=wrap;html=1;fillColor=#dae8fc;strokeColor=#6c8ebf;" parent="zZJHMVHqWspqlWFaA559-15" vertex="1">
          <mxGeometry y="-2" width="105" height="130" as="geometry" />
        </mxCell>
        <mxCell id="zZJHMVHqWspqlWFaA559-16" value="" style="swimlane;swimlaneHead=0;swimlaneBody=0;fontStyle=0;connectable=0;startSize=0;collapsible=0;recursiveResize=0;expand=0;dashed=1;" parent="zZJHMVHqWspqlWFaA559-13" vertex="1">
          <mxGeometry x="250" width="105" height="126" as="geometry">
            <mxRectangle width="105" height="126" as="alternateBounds" />
          </mxGeometry>
        </mxCell>
        <mxCell id="6n-yQPafIiMLYWiK96yH-11" value="" style="swimlane;swimlaneHead=0;swimlaneBody=0;fontStyle=0;connectable=0;startSize=0;collapsible=0;recursiveResize=0;expand=0;dashed=1;" parent="zZJHMVHqWspqlWFaA559-16" vertex="1">
          <mxGeometry y="-2" width="105" height="129" as="geometry">
            <mxRectangle width="105" height="129" as="alternateBounds" />
          </mxGeometry>
        </mxCell>
        <mxCell id="6n-yQPafIiMLYWiK96yH-12" value="&lt;div align=&quot;left&quot;&gt;&lt;div align=&quot;left&quot;&gt;&lt;font color=&quot;#4f688c&quot;&gt;Eintrag gebuchter Termin mit allen Details&lt;/font&gt;&lt;/div&gt;&lt;font color=&quot;#4f688c&quot;&gt;&lt;/font&gt;&lt;/div&gt;" style="rounded=0;whiteSpace=wrap;html=1;fillColor=#dae8fc;strokeColor=#6c8ebf;" parent="6n-yQPafIiMLYWiK96yH-11" vertex="1">
          <mxGeometry width="105" height="130" as="geometry" />
        </mxCell>
        <mxCell id="zZJHMVHqWspqlWFaA559-17" value="" style="swimlane;swimlaneHead=0;swimlaneBody=0;fontStyle=0;connectable=0;startSize=0;collapsible=0;recursiveResize=0;expand=0;dashed=1;" parent="zZJHMVHqWspqlWFaA559-13" vertex="1">
          <mxGeometry x="355" width="105" height="126" as="geometry">
            <mxRectangle width="105" height="126" as="alternateBounds" />
          </mxGeometry>
        </mxCell>
        <mxCell id="zZJHMVHqWspqlWFaA559-18" value="" style="swimlane;swimlaneHead=0;swimlaneBody=0;fontStyle=0;connectable=0;startSize=0;collapsible=0;recursiveResize=0;expand=0;dashed=1;" parent="zZJHMVHqWspqlWFaA559-13" vertex="1">
          <mxGeometry x="460" width="105" height="126" as="geometry">
            <mxRectangle width="105" height="126" as="alternateBounds" />
          </mxGeometry>
        </mxCell>
        <mxCell id="6n-yQPafIiMLYWiK96yH-3" value="&lt;div align=&quot;left&quot;&gt;&lt;div align=&quot;left&quot;&gt;&lt;font color=&quot;#4f688c&quot;&gt;Eintrag gebuchter Termin mit allen Details&lt;/font&gt;&lt;/div&gt;&lt;font color=&quot;#4f688c&quot;&gt;&lt;/font&gt;&lt;/div&gt;" style="rounded=0;whiteSpace=wrap;html=1;fillColor=#dae8fc;strokeColor=#6c8ebf;" parent="zZJHMVHqWspqlWFaA559-18" vertex="1">
          <mxGeometry x="-1.7763568394002505e-15" y="-1" width="105" height="130" as="geometry" />
        </mxCell>
        <mxCell id="zZJHMVHqWspqlWFaA559-19" value="" style="swimlane;swimlaneHead=0;swimlaneBody=0;fontStyle=0;connectable=0;startSize=0;collapsible=0;recursiveResize=0;expand=0;dashed=1;" parent="zZJHMVHqWspqlWFaA559-13" vertex="1">
          <mxGeometry x="565" width="105" height="126" as="geometry">
            <mxRectangle width="105" height="126" as="alternateBounds" />
          </mxGeometry>
        </mxCell>
        <mxCell id="zZJHMVHqWspqlWFaA559-20" value="" style="swimlane;swimlaneHead=0;swimlaneBody=0;fontStyle=0;connectable=0;strokeColor=inherit;fillColor=none;startSize=0;collapsible=0;recursiveResize=0;expand=0;dashed=1;" parent="zZJHMVHqWspqlWFaA559-13" vertex="1">
          <mxGeometry x="670" width="105" height="126" as="geometry">
            <mxRectangle width="105" height="126" as="alternateBounds" />
          </mxGeometry>
        </mxCell>
        <mxCell id="zZJHMVHqWspqlWFaA559-22" value="Zeitslot 3" style="shape=tableRow;horizontal=0;swimlaneHead=0;swimlaneBody=0;top=0;left=0;bottom=0;right=0;dropTarget=0;fontStyle=0;points=[[0,0.5],[1,0.5]];portConstraint=eastwest;startSize=40;collapsible=0;recursiveResize=0;expand=0;dashed=1;" parent="zZJHMVHqWspqlWFaA559-3" vertex="1">
          <mxGeometry y="296" width="775" height="129" as="geometry" />
        </mxCell>
        <mxCell id="zZJHMVHqWspqlWFaA559-23" value="" style="swimlane;swimlaneHead=0;swimlaneBody=0;fontStyle=0;connectable=0;startSize=0;collapsible=0;recursiveResize=0;expand=0;dashed=1;" parent="zZJHMVHqWspqlWFaA559-22" vertex="1">
          <mxGeometry x="40" width="105" height="129" as="geometry">
            <mxRectangle width="105" height="129" as="alternateBounds" />
          </mxGeometry>
        </mxCell>
        <mxCell id="zZJHMVHqWspqlWFaA559-24" value="" style="swimlane;swimlaneHead=0;swimlaneBody=0;fontStyle=0;connectable=0;startSize=0;collapsible=0;recursiveResize=0;expand=0;dashed=1;" parent="zZJHMVHqWspqlWFaA559-22" vertex="1">
          <mxGeometry x="145" width="105" height="129" as="geometry">
            <mxRectangle width="105" height="129" as="alternateBounds" />
          </mxGeometry>
        </mxCell>
        <mxCell id="6n-yQPafIiMLYWiK96yH-8" value="" style="swimlane;swimlaneHead=0;swimlaneBody=0;fontStyle=0;connectable=0;startSize=0;collapsible=0;recursiveResize=0;expand=0;dashed=1;" parent="zZJHMVHqWspqlWFaA559-24" vertex="1">
          <mxGeometry x="6" y="4.5" width="105" height="129" as="geometry">
            <mxRectangle width="105" height="129" as="alternateBounds" />
          </mxGeometry>
        </mxCell>
        <mxCell id="6n-yQPafIiMLYWiK96yH-9" value="&lt;div align=&quot;left&quot;&gt;&lt;div align=&quot;left&quot;&gt;&lt;font color=&quot;#4f688c&quot;&gt;Eintrag gebuchter Termin mit allen Details&lt;/font&gt;&lt;/div&gt;&lt;font color=&quot;#4f688c&quot;&gt;&lt;/font&gt;&lt;/div&gt;" style="rounded=0;whiteSpace=wrap;html=1;fillColor=#dae8fc;strokeColor=#6c8ebf;" parent="6n-yQPafIiMLYWiK96yH-8" vertex="1">
          <mxGeometry x="-5" y="-1" width="105" height="130" as="geometry" />
        </mxCell>
        <mxCell id="zZJHMVHqWspqlWFaA559-25" value="" style="swimlane;swimlaneHead=0;swimlaneBody=0;fontStyle=0;connectable=0;startSize=0;collapsible=0;recursiveResize=0;expand=0;dashed=1;" parent="zZJHMVHqWspqlWFaA559-22" vertex="1">
          <mxGeometry x="250" width="105" height="129" as="geometry">
            <mxRectangle width="105" height="129" as="alternateBounds" />
          </mxGeometry>
        </mxCell>
        <mxCell id="zZJHMVHqWspqlWFaA559-26" value="" style="swimlane;swimlaneHead=0;swimlaneBody=0;fontStyle=0;connectable=0;startSize=0;collapsible=0;recursiveResize=0;expand=0;dashed=1;" parent="zZJHMVHqWspqlWFaA559-22" vertex="1">
          <mxGeometry x="355" width="105" height="129" as="geometry">
            <mxRectangle width="105" height="129" as="alternateBounds" />
          </mxGeometry>
        </mxCell>
        <mxCell id="hZRU2H-SfIQ9f5EC4YqQ-66" value="&lt;div align=&quot;left&quot;&gt;&lt;div align=&quot;left&quot;&gt;&lt;font color=&quot;#4f688c&quot;&gt;Eintrag gebuchter Termin mit allen Details&lt;/font&gt;&lt;/div&gt;&lt;font color=&quot;#4f688c&quot;&gt;&lt;/font&gt;&lt;/div&gt;" style="rounded=0;whiteSpace=wrap;html=1;fillColor=#dae8fc;strokeColor=#6c8ebf;" parent="zZJHMVHqWspqlWFaA559-26" vertex="1">
          <mxGeometry width="105" height="130" as="geometry" />
        </mxCell>
        <mxCell id="hZRU2H-SfIQ9f5EC4YqQ-68" value="" style="shape=flexArrow;endArrow=classic;html=1;rounded=0;width=6;endSize=5.45;strokeWidth=2;endWidth=15;" parent="zZJHMVHqWspqlWFaA559-26" edge="1">
          <mxGeometry width="50" height="50" relative="1" as="geometry">
            <mxPoint x="126" y="114" as="sourcePoint" />
            <mxPoint x="96" y="104" as="targetPoint" />
          </mxGeometry>
        </mxCell>
        <mxCell id="zZJHMVHqWspqlWFaA559-27" value="" style="swimlane;swimlaneHead=0;swimlaneBody=0;fontStyle=0;connectable=0;startSize=0;collapsible=0;recursiveResize=0;expand=0;dashed=1;" parent="zZJHMVHqWspqlWFaA559-22" vertex="1">
          <mxGeometry x="460" width="105" height="129" as="geometry">
            <mxRectangle width="105" height="129" as="alternateBounds" />
          </mxGeometry>
        </mxCell>
        <mxCell id="hZRU2H-SfIQ9f5EC4YqQ-71" style="edgeStyle=orthogonalEdgeStyle;rounded=0;orthogonalLoop=1;jettySize=auto;html=1;strokeColor=#ABABAB;" parent="zZJHMVHqWspqlWFaA559-27" edge="1">
          <mxGeometry relative="1" as="geometry">
            <mxPoint x="471" y="105" as="targetPoint" />
            <mxPoint x="11" y="104" as="sourcePoint" />
            <Array as="points">
              <mxPoint x="11" y="105" />
              <mxPoint x="132" y="105" />
            </Array>
          </mxGeometry>
        </mxCell>
        <mxCell id="zZJHMVHqWspqlWFaA559-28" value="" style="swimlane;swimlaneHead=0;swimlaneBody=0;fontStyle=0;connectable=0;startSize=0;collapsible=0;recursiveResize=0;expand=0;dashed=1;" parent="zZJHMVHqWspqlWFaA559-22" vertex="1">
          <mxGeometry x="565" width="105" height="129" as="geometry">
            <mxRectangle width="105" height="129" as="alternateBounds" />
          </mxGeometry>
        </mxCell>
        <mxCell id="zZJHMVHqWspqlWFaA559-29" value="" style="swimlane;swimlaneHead=0;swimlaneBody=0;fontStyle=0;connectable=0;strokeColor=inherit;fillColor=none;startSize=0;collapsible=0;recursiveResize=0;expand=0;dashed=1;" parent="zZJHMVHqWspqlWFaA559-22" vertex="1">
          <mxGeometry x="670" width="105" height="129" as="geometry">
            <mxRectangle width="105" height="129" as="alternateBounds" />
          </mxGeometry>
        </mxCell>
        <mxCell id="zZJHMVHqWspqlWFaA559-31" value="Zeitslot 4" style="shape=tableRow;horizontal=0;swimlaneHead=0;swimlaneBody=0;top=0;left=0;bottom=0;right=0;dropTarget=0;fontStyle=0;points=[[0,0.5],[1,0.5]];portConstraint=eastwest;startSize=40;collapsible=0;recursiveResize=0;expand=0;dashed=1;" parent="zZJHMVHqWspqlWFaA559-3" vertex="1">
          <mxGeometry y="425" width="775" height="126" as="geometry" />
        </mxCell>
        <mxCell id="zZJHMVHqWspqlWFaA559-32" value="" style="swimlane;swimlaneHead=0;swimlaneBody=0;fontStyle=0;connectable=0;strokeColor=inherit;fillColor=none;startSize=0;collapsible=0;recursiveResize=0;expand=0;dashed=1;" parent="zZJHMVHqWspqlWFaA559-31" vertex="1">
          <mxGeometry x="40" width="105" height="126" as="geometry">
            <mxRectangle width="105" height="126" as="alternateBounds" />
          </mxGeometry>
        </mxCell>
        <mxCell id="zZJHMVHqWspqlWFaA559-33" value="" style="swimlane;swimlaneHead=0;swimlaneBody=0;fontStyle=0;connectable=0;strokeColor=inherit;fillColor=none;startSize=0;collapsible=0;recursiveResize=0;expand=0;dashed=1;" parent="zZJHMVHqWspqlWFaA559-31" vertex="1">
          <mxGeometry x="145" width="105" height="126" as="geometry">
            <mxRectangle width="105" height="126" as="alternateBounds" />
          </mxGeometry>
        </mxCell>
        <mxCell id="zZJHMVHqWspqlWFaA559-34" value="" style="swimlane;swimlaneHead=0;swimlaneBody=0;fontStyle=0;connectable=0;strokeColor=inherit;fillColor=none;startSize=0;collapsible=0;recursiveResize=0;expand=0;dashed=1;" parent="zZJHMVHqWspqlWFaA559-31" vertex="1">
          <mxGeometry x="250" width="105" height="126" as="geometry">
            <mxRectangle width="105" height="126" as="alternateBounds" />
          </mxGeometry>
        </mxCell>
        <mxCell id="zZJHMVHqWspqlWFaA559-35" value="" style="swimlane;swimlaneHead=0;swimlaneBody=0;fontStyle=0;connectable=0;strokeColor=inherit;fillColor=none;startSize=0;collapsible=0;recursiveResize=0;expand=0;dashed=1;" parent="zZJHMVHqWspqlWFaA559-31" vertex="1">
          <mxGeometry x="355" width="105" height="126" as="geometry">
            <mxRectangle width="105" height="126" as="alternateBounds" />
          </mxGeometry>
        </mxCell>
        <mxCell id="zZJHMVHqWspqlWFaA559-36" value="" style="swimlane;swimlaneHead=0;swimlaneBody=0;fontStyle=0;connectable=0;strokeColor=inherit;fillColor=none;startSize=0;collapsible=0;recursiveResize=0;expand=0;dashed=1;" parent="zZJHMVHqWspqlWFaA559-31" vertex="1">
          <mxGeometry x="460" width="105" height="126" as="geometry">
            <mxRectangle width="105" height="126" as="alternateBounds" />
          </mxGeometry>
        </mxCell>
        <mxCell id="zZJHMVHqWspqlWFaA559-37" value="" style="swimlane;swimlaneHead=0;swimlaneBody=0;fontStyle=0;connectable=0;strokeColor=inherit;fillColor=none;startSize=0;collapsible=0;recursiveResize=0;expand=0;dashed=1;" parent="zZJHMVHqWspqlWFaA559-31" vertex="1">
          <mxGeometry x="565" width="105" height="126" as="geometry">
            <mxRectangle width="105" height="126" as="alternateBounds" />
          </mxGeometry>
        </mxCell>
        <mxCell id="zZJHMVHqWspqlWFaA559-38" value="" style="swimlane;swimlaneHead=0;swimlaneBody=0;fontStyle=0;connectable=0;strokeColor=inherit;fillColor=none;startSize=0;collapsible=0;recursiveResize=0;expand=0;dashed=1;" parent="zZJHMVHqWspqlWFaA559-31" vertex="1">
          <mxGeometry x="670" width="105" height="126" as="geometry">
            <mxRectangle width="105" height="126" as="alternateBounds" />
          </mxGeometry>
        </mxCell>
        <mxCell id="Xh5SDCKvO4uXyYsXdFf4-10" value="&lt;div&gt;Für diese Prüfung wird die zusätzliche Software &quot;Exam Master 2000&quot; benötigt.&lt;/div&gt;&lt;div&gt;Die Konfigurationsdatei habe ich Ihnen per Mail geschickt.&lt;br&gt;&lt;/div&gt;" style="rounded=1;whiteSpace=wrap;html=1;align=left;verticalAlign=top;" parent="1" vertex="1">
          <mxGeometry x="172" y="-387" width="458" height="77" as="geometry" />
        </mxCell>
        <mxCell id="hZRU2H-SfIQ9f5EC4YqQ-3" value="" style="shape=flexArrow;endArrow=classic;html=1;rounded=0;endWidth=8;endSize=4;fillColor=#dae8fc;strokeColor=#6c8ebf;" parent="1" edge="1">
          <mxGeometry width="50" height="50" relative="1" as="geometry">
            <mxPoint x="-770" y="-855.5" as="sourcePoint" />
            <mxPoint x="-810" y="-855.5" as="targetPoint" />
          </mxGeometry>
        </mxCell>
        <mxCell id="hZRU2H-SfIQ9f5EC4YqQ-5" value="" style="shape=flexArrow;endArrow=classic;html=1;rounded=0;endWidth=8;endSize=4;fillColor=#dae8fc;strokeColor=#6c8ebf;" parent="1" edge="1">
          <mxGeometry width="50" height="50" relative="1" as="geometry">
            <mxPoint x="-50" y="-855.5" as="sourcePoint" />
            <mxPoint x="-10" y="-855.5" as="targetPoint" />
          </mxGeometry>
        </mxCell>
        <mxCell id="hZRU2H-SfIQ9f5EC4YqQ-6" value="&lt;div&gt;&lt;font style=&quot;font-size: 25px;&quot;&gt;Monat&lt;br&gt;&lt;/font&gt;&lt;/div&gt;&lt;div&gt;&lt;font style=&quot;font-size: 25px;&quot;&gt;Kalenderwoche xx&lt;/font&gt;&lt;/div&gt;" style="text;html=1;align=center;verticalAlign=middle;whiteSpace=wrap;rounded=0;fontColor=#7EA6E0;" parent="1" vertex="1">
          <mxGeometry x="-558.5" y="-910" width="290" height="60" as="geometry" />
        </mxCell>
        <mxCell id="hZRU2H-SfIQ9f5EC4YqQ-7" value="KW xx" style="text;html=1;align=center;verticalAlign=middle;whiteSpace=wrap;rounded=0;" parent="1" vertex="1">
          <mxGeometry x="-770" y="-870" width="60" height="30" as="geometry" />
        </mxCell>
        <mxCell id="hZRU2H-SfIQ9f5EC4YqQ-9" value="KW xx" style="text;html=1;align=center;verticalAlign=middle;whiteSpace=wrap;rounded=0;" parent="1" vertex="1">
          <mxGeometry x="-110" y="-870" width="60" height="30" as="geometry" />
        </mxCell>
        <mxCell id="hZRU2H-SfIQ9f5EC4YqQ-38" style="edgeStyle=orthogonalEdgeStyle;rounded=0;orthogonalLoop=1;jettySize=auto;html=1;strokeColor=#ABABAB;exitX=1.002;exitY=0.567;exitDx=0;exitDy=0;exitPerimeter=0;" parent="1" source="hZRU2H-SfIQ9f5EC4YqQ-110" edge="1">
          <mxGeometry relative="1" as="geometry">
            <mxPoint x="90" y="-940" as="targetPoint" />
          </mxGeometry>
        </mxCell>
        <mxCell id="hZRU2H-SfIQ9f5EC4YqQ-37" style="edgeStyle=orthogonalEdgeStyle;rounded=0;orthogonalLoop=1;jettySize=auto;html=1;strokeColor=#ABABAB;" parent="1" source="hZRU2H-SfIQ9f5EC4YqQ-28" edge="1">
          <mxGeometry relative="1" as="geometry">
            <mxPoint x="-965" y="-910" as="targetPoint" />
          </mxGeometry>
        </mxCell>
        <mxCell id="hZRU2H-SfIQ9f5EC4YqQ-28" value="Monat/KW" style="html=1;shadow=0;dashed=0;shape=mxgraph.bootstrap.rrect;rSize=5;fillColor=#ffffff;strokeColor=#999999;align=left;spacing=15;fontSize=14;fontColor=#6C767D;" parent="1" vertex="1">
          <mxGeometry x="-810" y="-980" width="160" height="30" as="geometry" />
        </mxCell>
        <mxCell id="hZRU2H-SfIQ9f5EC4YqQ-29" value="" style="shape=triangle;direction=south;fillColor=#343A40;strokeColor=none;perimeter=none;sketch=0;" parent="hZRU2H-SfIQ9f5EC4YqQ-28" vertex="1">
          <mxGeometry x="1" y="0.5" width="7" height="3" relative="1" as="geometry">
            <mxPoint x="-17" y="1" as="offset" />
          </mxGeometry>
        </mxCell>
        <mxCell id="hZRU2H-SfIQ9f5EC4YqQ-30" value="" style="shape=triangle;direction=north;fillColor=#343A40;strokeColor=none;perimeter=none;sketch=0;" parent="hZRU2H-SfIQ9f5EC4YqQ-28" vertex="1">
          <mxGeometry x="1" y="0.5" width="7" height="3" relative="1" as="geometry">
            <mxPoint x="-17" y="-4" as="offset" />
          </mxGeometry>
        </mxCell>
        <mxCell id="hZRU2H-SfIQ9f5EC4YqQ-53" value="" style="html=1;shadow=0;dashed=0;shape=mxgraph.bootstrap.rrect;rSize=5;strokeColor=#DFDFDF;html=1;whiteSpace=wrap;fillColor=#FFFFFF;fontColor=#000000;" parent="1" vertex="1">
          <mxGeometry x="10" y="-1030" width="200" height="180" as="geometry" />
        </mxCell>
        <mxCell id="hZRU2H-SfIQ9f5EC4YqQ-54" value="Institut" style="html=1;shadow=0;dashed=0;shape=mxgraph.bootstrap.topButton;rSize=5;strokeColor=inherit;fillColor=#ffffff;fontColor=#6C767D;perimeter=none;whiteSpace=wrap;resizeWidth=1;align=left;spacing=10;" parent="hZRU2H-SfIQ9f5EC4YqQ-53" vertex="1">
          <mxGeometry width="200" height="30" relative="1" as="geometry" />
        </mxCell>
        <mxCell id="hZRU2H-SfIQ9f5EC4YqQ-55" value="&lt;span style=&quot;color: rgb(171, 171, 171);&quot;&gt;Freitexsuch (Prüfungsname / Titel&lt;/span&gt;" style="strokeColor=inherit;fillColor=inherit;gradientColor=inherit;fontColor=inherit;html=1;shadow=0;dashed=0;perimeter=none;whiteSpace=wrap;resizeWidth=1;align=left;spacing=10;" parent="hZRU2H-SfIQ9f5EC4YqQ-53" vertex="1">
          <mxGeometry width="200" height="30" relative="1" as="geometry">
            <mxPoint y="30" as="offset" />
          </mxGeometry>
        </mxCell>
        <mxCell id="hZRU2H-SfIQ9f5EC4YqQ-56" value="Fakultät / Institut" style="strokeColor=inherit;fillColor=inherit;gradientColor=inherit;fontColor=inherit;html=1;shadow=0;dashed=0;perimeter=none;whiteSpace=wrap;resizeWidth=1;align=left;spacing=10;" parent="hZRU2H-SfIQ9f5EC4YqQ-53" vertex="1">
          <mxGeometry width="200" height="30" relative="1" as="geometry">
            <mxPoint y="60" as="offset" />
          </mxGeometry>
        </mxCell>
        <mxCell id="hZRU2H-SfIQ9f5EC4YqQ-57" value="Raum" style="strokeColor=inherit;fillColor=inherit;gradientColor=inherit;fontColor=inherit;html=1;shadow=0;dashed=0;perimeter=none;whiteSpace=wrap;resizeWidth=1;align=left;spacing=10;" parent="hZRU2H-SfIQ9f5EC4YqQ-53" vertex="1">
          <mxGeometry width="200" height="30" relative="1" as="geometry">
            <mxPoint y="90" as="offset" />
          </mxGeometry>
        </mxCell>
        <mxCell id="hZRU2H-SfIQ9f5EC4YqQ-58" value="Status" style="strokeColor=inherit;fillColor=inherit;gradientColor=inherit;fontColor=inherit;html=1;shadow=0;dashed=0;shape=mxgraph.bootstrap.bottomButton;rSize=5;perimeter=none;whiteSpace=wrap;resizeWidth=1;resizeHeight=0;align=left;spacing=10;" parent="hZRU2H-SfIQ9f5EC4YqQ-53" vertex="1">
          <mxGeometry y="1" width="200" height="29" relative="1" as="geometry">
            <mxPoint y="-40" as="offset" />
          </mxGeometry>
        </mxCell>
        <mxCell id="VEeHRCUbO_2weyN1t2fq-1" value="Zeitslot" style="strokeColor=inherit;fillColor=inherit;gradientColor=inherit;fontColor=inherit;html=1;shadow=0;dashed=0;perimeter=none;whiteSpace=wrap;resizeWidth=1;align=left;spacing=10;" parent="hZRU2H-SfIQ9f5EC4YqQ-53" vertex="1">
          <mxGeometry y="113.68421052631578" width="200" height="28.421052631578945" as="geometry" />
        </mxCell>
        <mxCell id="hZRU2H-SfIQ9f5EC4YqQ-59" value="" style="line;strokeWidth=1;html=1;dashed=1;" parent="1" vertex="1">
          <mxGeometry x="-800" y="-775" width="40" height="10" as="geometry" />
        </mxCell>
        <mxCell id="hZRU2H-SfIQ9f5EC4YqQ-61" value="&lt;font style=&quot;font-size: 24px;&quot;&gt;&lt;b&gt;&lt;font color=&quot;#ffffff&quot;&gt;Mockup Kalender Service-Team persönliche Termine (Terminübersicht)&lt;/font&gt;&lt;font color=&quot;#ffffff&quot;&gt;&lt;br&gt;&lt;/font&gt;&lt;/b&gt;&lt;/font&gt;" style="rounded=0;whiteSpace=wrap;html=1;fillColor=#7EA6E0;strokeColor=#7EA6E0;" parent="1" vertex="1">
          <mxGeometry x="-827" y="-230" width="827" height="80" as="geometry" />
        </mxCell>
        <mxCell id="hZRU2H-SfIQ9f5EC4YqQ-73" value="nach dem Klicken auf den Termin, öffnet sich die Detailansicht mit allen Angaben zum Termin (Die Ansicht liegt über dem Kalender)" style="text;html=1;align=center;verticalAlign=middle;whiteSpace=wrap;rounded=0;fillColor=#fff2cc;strokeColor=#d6b656;fontColor=default;" parent="1" vertex="1">
          <mxGeometry x="-17.5" y="-486.5" width="130" height="112" as="geometry" />
        </mxCell>
        <mxCell id="hZRU2H-SfIQ9f5EC4YqQ-84" value="" style="html=1;verticalLabelPosition=bottom;align=center;labelBackgroundColor=#ffffff;verticalAlign=top;strokeWidth=2;strokeColor=#7EA6E0;shadow=0;dashed=0;shape=mxgraph.ios7.icons.edit;" parent="1" vertex="1">
          <mxGeometry x="138" y="-86" width="29.4" height="29.4" as="geometry" />
        </mxCell>
        <mxCell id="hZRU2H-SfIQ9f5EC4YqQ-110" value="Filterkategorie" style="html=1;shadow=0;dashed=0;shape=mxgraph.bootstrap.rrect;rSize=5;strokeColor=#ABABAB;strokeWidth=1;fillColor=#ffffff;fontColor=#777777;whiteSpace=wrap;align=left;verticalAlign=middle;fontStyle=0;fontSize=14;spacingRight=0;spacing=17;" parent="1" vertex="1">
          <mxGeometry x="-630" y="-980" width="550" height="30" as="geometry" />
        </mxCell>
        <mxCell id="hZRU2H-SfIQ9f5EC4YqQ-111" value="" style="shape=triangle;direction=south;fillColor=#495057;strokeColor=none;perimeter=none;" parent="hZRU2H-SfIQ9f5EC4YqQ-110" vertex="1">
          <mxGeometry x="1" y="0.5" width="10" height="5" relative="1" as="geometry">
            <mxPoint x="-17" y="-2.5" as="offset" />
          </mxGeometry>
        </mxCell>
        <mxCell id="hZRU2H-SfIQ9f5EC4YqQ-116" value="&lt;font size=&quot;1&quot;&gt;&lt;u style=&quot;font-size: 14px;&quot;&gt;Bearbeiten&lt;/u&gt;&lt;/font&gt;" style="html=1;shadow=0;dashed=0;shape=mxgraph.bootstrap.rrect;rSize=5;strokeColor=none;strokeWidth=1;fillColor=none;fontColor=#0085FC;whiteSpace=wrap;align=center;verticalAlign=middle;spacingLeft=0;fontStyle=0;fontSize=16;spacing=5;" parent="1" vertex="1">
          <mxGeometry x="529" y="-60" width="110" height="30.6" as="geometry" />
        </mxCell>
        <mxCell id="55VcoNajXq4q3Io8COJS-6" value="" style="edgeStyle=orthogonalEdgeStyle;rounded=0;orthogonalLoop=1;jettySize=auto;html=1;strokeColor=#999999;" parent="1" source="hZRU2H-SfIQ9f5EC4YqQ-124" target="hZRU2H-SfIQ9f5EC4YqQ-126" edge="1">
          <mxGeometry relative="1" as="geometry" />
        </mxCell>
        <mxCell id="hZRU2H-SfIQ9f5EC4YqQ-124" value="&lt;div&gt;&lt;font size=&quot;1&quot; color=&quot;#4f688c&quot;&gt;&lt;span style=&quot;font-size: 17px;&quot;&gt;Checkliste&lt;/span&gt;&lt;/font&gt;&lt;/div&gt;" style="strokeWidth=1;shadow=0;dashed=0;align=center;html=1;shape=mxgraph.mockup.buttons.button;strokeColor=#6c8ebf;mainText=;buttonStyle=round;fontSize=17;fontStyle=1;fillColor=#dae8fc;whiteSpace=wrap;" parent="1" vertex="1">
          <mxGeometry x="170" y="39" width="110" height="30" as="geometry" />
        </mxCell>
        <mxCell id="hZRU2H-SfIQ9f5EC4YqQ-126" value="&lt;font&gt;Es öffnet sich der Bereich / das Modul &lt;br&gt;mit den Checklisten&lt;br&gt;&lt;/font&gt;" style="text;html=1;align=center;verticalAlign=middle;whiteSpace=wrap;rounded=0;fillColor=#fff2cc;strokeColor=#d6b656;fontColor=default;" parent="1" vertex="1">
          <mxGeometry x="160" y="111" width="130" height="59" as="geometry" />
        </mxCell>
        <mxCell id="hZRU2H-SfIQ9f5EC4YqQ-128" value="Termine für die ich gebucht bin " style="text;html=1;align=center;verticalAlign=middle;whiteSpace=wrap;rounded=0;fontColor=#ABABAB;" parent="1" vertex="1">
          <mxGeometry x="-1260" y="-900" width="210" height="100" as="geometry" />
        </mxCell>
        <mxCell id="hZRU2H-SfIQ9f5EC4YqQ-131" value="" style="html=1;shadow=0;dashed=0;shape=mxgraph.bootstrap.rrect;rSize=5;strokeColor=#DFDFDF;html=1;whiteSpace=wrap;fillColor=#FFFFFF;fontColor=#000000;" parent="1" vertex="1">
          <mxGeometry x="-1050" y="-900" width="150" height="120" as="geometry" />
        </mxCell>
        <mxCell id="hZRU2H-SfIQ9f5EC4YqQ-132" value="&lt;font color=&quot;#ababab&quot;&gt;Tag&lt;/font&gt;" style="html=1;shadow=0;dashed=0;shape=mxgraph.bootstrap.topButton;rSize=5;strokeColor=inherit;fillColor=#ffffff;fontColor=#6C767D;perimeter=none;whiteSpace=wrap;resizeWidth=1;align=left;spacing=10;" parent="hZRU2H-SfIQ9f5EC4YqQ-131" vertex="1">
          <mxGeometry width="150" height="30" relative="1" as="geometry" />
        </mxCell>
        <mxCell id="hZRU2H-SfIQ9f5EC4YqQ-133" value="&lt;font color=&quot;#ababab&quot;&gt;persönliche Termine&lt;/font&gt;" style="strokeColor=inherit;fillColor=inherit;gradientColor=inherit;fontColor=inherit;html=1;shadow=0;dashed=0;perimeter=none;whiteSpace=wrap;resizeWidth=1;align=left;spacing=10;" parent="hZRU2H-SfIQ9f5EC4YqQ-131" vertex="1">
          <mxGeometry width="150" height="30" relative="1" as="geometry">
            <mxPoint y="30" as="offset" />
          </mxGeometry>
        </mxCell>
        <mxCell id="hZRU2H-SfIQ9f5EC4YqQ-134" value="Meine Vor-Ort-Termine" style="strokeColor=inherit;fillColor=inherit;gradientColor=inherit;fontColor=inherit;html=1;shadow=0;dashed=0;perimeter=none;whiteSpace=wrap;resizeWidth=1;align=left;spacing=10;" parent="hZRU2H-SfIQ9f5EC4YqQ-131" vertex="1">
          <mxGeometry width="150" height="30" relative="1" as="geometry">
            <mxPoint y="60" as="offset" />
          </mxGeometry>
        </mxCell>
        <mxCell id="hZRU2H-SfIQ9f5EC4YqQ-135" value="" style="strokeColor=inherit;fillColor=inherit;gradientColor=inherit;fontColor=inherit;html=1;shadow=0;dashed=0;perimeter=none;whiteSpace=wrap;resizeWidth=1;align=left;spacing=10;" parent="hZRU2H-SfIQ9f5EC4YqQ-131" vertex="1">
          <mxGeometry width="150" relative="1" as="geometry">
            <mxPoint y="90" as="offset" />
          </mxGeometry>
        </mxCell>
        <mxCell id="hZRU2H-SfIQ9f5EC4YqQ-136" value="&lt;font color=&quot;#ababab&quot;&gt;Aktuelle Termine&lt;/font&gt;" style="strokeColor=inherit;fillColor=inherit;gradientColor=inherit;fontColor=inherit;html=1;shadow=0;dashed=0;shape=mxgraph.bootstrap.bottomButton;rSize=5;perimeter=none;whiteSpace=wrap;resizeWidth=1;resizeHeight=0;align=left;spacing=10;" parent="hZRU2H-SfIQ9f5EC4YqQ-131" vertex="1">
          <mxGeometry y="1" width="150" height="30" relative="1" as="geometry">
            <mxPoint y="-30" as="offset" />
          </mxGeometry>
        </mxCell>
        <mxCell id="hZRU2H-SfIQ9f5EC4YqQ-210" value="" style="endArrow=classic;html=1;rounded=0;entryX=0;entryY=0.25;entryDx=0;entryDy=0;strokeColor=#ABABAB;" parent="1" source="hZRU2H-SfIQ9f5EC4YqQ-133" target="hZRU2H-SfIQ9f5EC4YqQ-61" edge="1">
          <mxGeometry width="50" height="50" relative="1" as="geometry">
            <mxPoint x="-942" y="-420" as="sourcePoint" />
            <mxPoint x="-892" y="-470" as="targetPoint" />
          </mxGeometry>
        </mxCell>
        <mxCell id="hZRU2H-SfIQ9f5EC4YqQ-217" style="edgeStyle=none;rounded=0;orthogonalLoop=1;jettySize=auto;html=1;" parent="1" source="hZRU2H-SfIQ9f5EC4YqQ-211" target="hZRU2H-SfIQ9f5EC4YqQ-216" edge="1">
          <mxGeometry relative="1" as="geometry" />
        </mxCell>
        <mxCell id="hZRU2H-SfIQ9f5EC4YqQ-211" value="&lt;font style=&quot;font-size: 24px;&quot; color=&quot;#ffffff&quot;&gt;&lt;b&gt;Detailansicht Prüfungstermin&lt;br&gt;&lt;/b&gt;&lt;/font&gt;" style="rounded=0;whiteSpace=wrap;html=1;fillColor=#7EA6E0;strokeColor=#7EA6E0;" parent="1" vertex="1">
          <mxGeometry x="149" y="-820" width="500" height="65" as="geometry" />
        </mxCell>
        <mxCell id="hZRU2H-SfIQ9f5EC4YqQ-212" value="&lt;font style=&quot;background-color: rgb(171, 171, 171);&quot; color=&quot;#ffffff&quot;&gt;Orientierung an dem Moodle-Kalender und dessen Funktionalitäten abgewandelt für den Zweck des Buchungstools &lt;/font&gt;" style="rounded=1;whiteSpace=wrap;html=1;fillColor=#ABABAB;fontColor=#333333;strokeColor=#666666;" parent="1" vertex="1">
          <mxGeometry x="-1270" y="-1040" width="170" height="110" as="geometry" />
        </mxCell>
        <mxCell id="hZRU2H-SfIQ9f5EC4YqQ-213" style="edgeStyle=none;rounded=0;orthogonalLoop=1;jettySize=auto;html=1;entryX=1.012;entryY=0.055;entryDx=0;entryDy=0;entryPerimeter=0;fillColor=#f5f5f5;strokeColor=#ABABAB;" parent="1" source="5YDPGhxfkZ1rQy1-W0EN-1" target="hZRU2H-SfIQ9f5EC4YqQ-212" edge="1">
          <mxGeometry relative="1" as="geometry" />
        </mxCell>
        <mxCell id="hZRU2H-SfIQ9f5EC4YqQ-214" value="&lt;font color=&quot;#ffffff&quot;&gt;Orientiert sich an der &quot;Aktuelle Termine&quot;-Ansicht des Mooclekalenders&lt;br&gt;&lt;/font&gt;" style="rounded=1;whiteSpace=wrap;html=1;fillColor=#ABABAB;fontColor=#333333;strokeColor=#666666;" parent="1" vertex="1">
          <mxGeometry x="-1180" y="-150" width="170" height="75" as="geometry" />
        </mxCell>
        <mxCell id="hZRU2H-SfIQ9f5EC4YqQ-215" style="edgeStyle=none;rounded=0;orthogonalLoop=1;jettySize=auto;html=1;entryX=1;entryY=0.19;entryDx=0;entryDy=0;entryPerimeter=0;strokeColor=#ABABAB;" parent="1" source="hZRU2H-SfIQ9f5EC4YqQ-61" target="hZRU2H-SfIQ9f5EC4YqQ-214" edge="1">
          <mxGeometry relative="1" as="geometry" />
        </mxCell>
        <mxCell id="hZRU2H-SfIQ9f5EC4YqQ-216" value="&lt;font&gt;Sollte prinzipiell mit der Detailansicht für Buchende übereinstimmen!&lt;br&gt;&lt;/font&gt;" style="rounded=1;whiteSpace=wrap;html=1;fillColor=#f8cecc;strokeColor=#b85450;fontColor=default;" parent="1" vertex="1">
          <mxGeometry x="670" y="-900" width="157" height="80" as="geometry" />
        </mxCell>
        <mxCell id="hZRU2H-SfIQ9f5EC4YqQ-226" value="&lt;font size=&quot;1&quot; color=&quot;#4f688c&quot;&gt;&lt;b style=&quot;font-size: 29px;&quot;&gt;Buchungskalender&lt;/b&gt;&lt;/font&gt;" style="text;html=1;align=center;verticalAlign=middle;whiteSpace=wrap;rounded=0;" parent="1" vertex="1">
          <mxGeometry x="-770" y="-1050" width="170" height="60" as="geometry" />
        </mxCell>
        <mxCell id="hZRU2H-SfIQ9f5EC4YqQ-228" value="&lt;font size=&quot;1&quot; color=&quot;#4f688c&quot;&gt;&lt;span style=&quot;font-weight: normal; font-size: 13px;&quot;&gt;Import und Export&lt;/span&gt;&lt;/font&gt;" style="strokeWidth=1;shadow=0;dashed=0;align=center;html=1;shape=mxgraph.mockup.buttons.button;strokeColor=#6c8ebf;mainText=;buttonStyle=round;fontSize=17;fontStyle=1;fillColor=#dae8fc;whiteSpace=wrap;" parent="1" vertex="1">
          <mxGeometry x="-801" y="-270" width="110" height="30" as="geometry" />
        </mxCell>
        <mxCell id="6n-yQPafIiMLYWiK96yH-2" value="" style="swimlane;swimlaneHead=0;swimlaneBody=0;fontStyle=0;connectable=0;startSize=0;collapsible=0;recursiveResize=0;expand=0;dashed=1;" parent="1" vertex="1">
          <mxGeometry x="-436" y="-524" width="105" height="129" as="geometry">
            <mxRectangle width="105" height="129" as="alternateBounds" />
          </mxGeometry>
        </mxCell>
        <mxCell id="6n-yQPafIiMLYWiK96yH-5" value="" style="swimlane;swimlaneHead=0;swimlaneBody=0;fontStyle=0;connectable=0;startSize=0;collapsible=0;recursiveResize=0;expand=0;dashed=1;" parent="1" vertex="1">
          <mxGeometry x="-426" y="-514" width="105" height="129" as="geometry">
            <mxRectangle width="105" height="129" as="alternateBounds" />
          </mxGeometry>
        </mxCell>
        <mxCell id="6n-yQPafIiMLYWiK96yH-34" value="" style="verticalLabelPosition=bottom;verticalAlign=top;html=1;shape=mxgraph.basic.smiley;strokeColor=#7EA6E0;" parent="1" vertex="1">
          <mxGeometry x="136" y="-222" width="30" height="30" as="geometry" />
        </mxCell>
        <mxCell id="6n-yQPafIiMLYWiK96yH-36" value="&lt;div&gt;&lt;font color=&quot;#4f688c&quot;&gt;Service vor Ort (mehrere Personen möglich)&lt;br&gt;&lt;/font&gt;&lt;/div&gt;" style="text;html=1;align=left;verticalAlign=middle;whiteSpace=wrap;rounded=0;" parent="1" vertex="1">
          <mxGeometry x="174" y="-218" width="166" height="30" as="geometry" />
        </mxCell>
        <mxCell id="6n-yQPafIiMLYWiK96yH-55" value="" style="shape=table;startSize=0;container=1;collapsible=0;childLayout=tableLayout;fontSize=16;strokeColor=#7EA6E0;fontColor=#7EA6E0;" parent="1" vertex="1">
          <mxGeometry x="344" y="-175" width="280" height="82" as="geometry" />
        </mxCell>
        <mxCell id="6n-yQPafIiMLYWiK96yH-56" value="" style="shape=tableRow;horizontal=0;startSize=0;swimlaneHead=0;swimlaneBody=0;strokeColor=inherit;top=0;left=0;bottom=0;right=0;collapsible=0;dropTarget=0;fillColor=none;points=[[0,0.5],[1,0.5]];portConstraint=eastwest;fontSize=16;" parent="6n-yQPafIiMLYWiK96yH-55" vertex="1">
          <mxGeometry width="280" height="27" as="geometry" />
        </mxCell>
        <mxCell id="6n-yQPafIiMLYWiK96yH-57" value="Prüfungsdesktop" style="shape=partialRectangle;html=1;whiteSpace=wrap;connectable=0;strokeColor=inherit;overflow=hidden;fillColor=none;top=0;left=0;bottom=0;right=0;pointerEvents=1;fontSize=10;" parent="6n-yQPafIiMLYWiK96yH-56" vertex="1">
          <mxGeometry width="119" height="27" as="geometry">
            <mxRectangle width="119" height="27" as="alternateBounds" />
          </mxGeometry>
        </mxCell>
        <mxCell id="6n-yQPafIiMLYWiK96yH-58" value="2" style="shape=partialRectangle;html=1;whiteSpace=wrap;connectable=0;strokeColor=inherit;overflow=hidden;fillColor=none;top=0;left=0;bottom=0;right=0;pointerEvents=1;fontSize=10;" parent="6n-yQPafIiMLYWiK96yH-56" vertex="1">
          <mxGeometry x="119" width="58" height="27" as="geometry">
            <mxRectangle width="58" height="27" as="alternateBounds" />
          </mxGeometry>
        </mxCell>
        <mxCell id="6n-yQPafIiMLYWiK96yH-59" value="konfiguriert" style="shape=partialRectangle;html=1;whiteSpace=wrap;connectable=0;strokeColor=inherit;overflow=hidden;fillColor=none;top=0;left=0;bottom=0;right=0;pointerEvents=1;fontSize=10;" parent="6n-yQPafIiMLYWiK96yH-56" vertex="1">
          <mxGeometry x="177" width="103" height="27" as="geometry">
            <mxRectangle width="103" height="27" as="alternateBounds" />
          </mxGeometry>
        </mxCell>
        <mxCell id="6n-yQPafIiMLYWiK96yH-60" value="" style="shape=tableRow;horizontal=0;startSize=0;swimlaneHead=0;swimlaneBody=0;strokeColor=inherit;top=0;left=0;bottom=0;right=0;collapsible=0;dropTarget=0;fillColor=none;points=[[0,0.5],[1,0.5]];portConstraint=eastwest;fontSize=16;" parent="6n-yQPafIiMLYWiK96yH-55" vertex="1">
          <mxGeometry y="27" width="280" height="28" as="geometry" />
        </mxCell>
        <mxCell id="6n-yQPafIiMLYWiK96yH-61" value="SEB" style="shape=partialRectangle;html=1;whiteSpace=wrap;connectable=0;strokeColor=inherit;overflow=hidden;fillColor=none;top=0;left=0;bottom=0;right=0;pointerEvents=1;fontSize=10;" parent="6n-yQPafIiMLYWiK96yH-60" vertex="1">
          <mxGeometry width="119" height="28" as="geometry">
            <mxRectangle width="119" height="28" as="alternateBounds" />
          </mxGeometry>
        </mxCell>
        <mxCell id="6n-yQPafIiMLYWiK96yH-62" value="ja" style="shape=partialRectangle;html=1;whiteSpace=wrap;connectable=0;strokeColor=inherit;overflow=hidden;fillColor=none;top=0;left=0;bottom=0;right=0;pointerEvents=1;fontSize=10;" parent="6n-yQPafIiMLYWiK96yH-60" vertex="1">
          <mxGeometry x="119" width="58" height="28" as="geometry">
            <mxRectangle width="58" height="28" as="alternateBounds" />
          </mxGeometry>
        </mxCell>
        <mxCell id="6n-yQPafIiMLYWiK96yH-63" value="konfiguriert" style="shape=partialRectangle;html=1;whiteSpace=wrap;connectable=0;strokeColor=inherit;overflow=hidden;fillColor=none;top=0;left=0;bottom=0;right=0;pointerEvents=1;fontSize=10;" parent="6n-yQPafIiMLYWiK96yH-60" vertex="1">
          <mxGeometry x="177" width="103" height="28" as="geometry">
            <mxRectangle width="103" height="28" as="alternateBounds" />
          </mxGeometry>
        </mxCell>
        <mxCell id="6n-yQPafIiMLYWiK96yH-64" value="" style="shape=tableRow;horizontal=0;startSize=0;swimlaneHead=0;swimlaneBody=0;strokeColor=inherit;top=0;left=0;bottom=0;right=0;collapsible=0;dropTarget=0;fillColor=none;points=[[0,0.5],[1,0.5]];portConstraint=eastwest;fontSize=16;" parent="6n-yQPafIiMLYWiK96yH-55" vertex="1">
          <mxGeometry y="55" width="280" height="27" as="geometry" />
        </mxCell>
        <mxCell id="6n-yQPafIiMLYWiK96yH-65" value="STACK" style="shape=partialRectangle;html=1;whiteSpace=wrap;connectable=0;strokeColor=inherit;overflow=hidden;fillColor=none;top=0;left=0;bottom=0;right=0;pointerEvents=1;fontSize=10;" parent="6n-yQPafIiMLYWiK96yH-64" vertex="1">
          <mxGeometry width="119" height="27" as="geometry">
            <mxRectangle width="119" height="27" as="alternateBounds" />
          </mxGeometry>
        </mxCell>
        <mxCell id="6n-yQPafIiMLYWiK96yH-66" value="ja" style="shape=partialRectangle;html=1;whiteSpace=wrap;connectable=0;strokeColor=inherit;overflow=hidden;fillColor=none;top=0;left=0;bottom=0;right=0;pointerEvents=1;fontSize=10;" parent="6n-yQPafIiMLYWiK96yH-64" vertex="1">
          <mxGeometry x="119" width="58" height="27" as="geometry">
            <mxRectangle width="58" height="27" as="alternateBounds" />
          </mxGeometry>
        </mxCell>
        <mxCell id="6n-yQPafIiMLYWiK96yH-67" value="Review noch nicht durchgeführt" style="shape=partialRectangle;html=1;whiteSpace=wrap;connectable=0;strokeColor=inherit;overflow=hidden;fillColor=none;top=0;left=0;bottom=0;right=0;pointerEvents=1;fontSize=10;" parent="6n-yQPafIiMLYWiK96yH-64" vertex="1">
          <mxGeometry x="177" width="103" height="27" as="geometry">
            <mxRectangle width="103" height="27" as="alternateBounds" />
          </mxGeometry>
        </mxCell>
        <mxCell id="6n-yQPafIiMLYWiK96yH-68" value="&lt;font&gt;Tabelle mit speziellen Features der Prüfung - angezeigt werden nur die, die auch vom Buchenden angefragt werden (sofern optional, z.B: STACK) und im Template konfiguriert sind. In der dritten Spalte sieht man den aktuellen Status aus der Checkliste&lt;br&gt;&lt;/font&gt;" style="text;html=1;align=center;verticalAlign=middle;whiteSpace=wrap;rounded=0;fillColor=#fff2cc;strokeColor=#d6b656;fontColor=default;" parent="1" vertex="1">
          <mxGeometry x="743" y="-238" width="290" height="100" as="geometry" />
        </mxCell>
        <mxCell id="6n-yQPafIiMLYWiK96yH-69" style="edgeStyle=none;rounded=0;orthogonalLoop=1;jettySize=auto;html=1;strokeColor=#ABABAB;entryX=1;entryY=0.5;entryDx=0;entryDy=0;" parent="1" source="6n-yQPafIiMLYWiK96yH-68" target="6n-yQPafIiMLYWiK96yH-60" edge="1">
          <mxGeometry relative="1" as="geometry">
            <mxPoint x="743" y="-363.5" as="targetPoint" />
            <mxPoint x="840" y="-180" as="sourcePoint" />
          </mxGeometry>
        </mxCell>
        <mxCell id="6n-yQPafIiMLYWiK96yH-70" value="" style="sketch=0;outlineConnect=0;fontColor=#232F3E;gradientColor=none;fillColor=#7EA6E0;strokeColor=none;dashed=0;verticalLabelPosition=bottom;verticalAlign=top;align=center;html=1;fontSize=12;fontStyle=0;aspect=fixed;pointerEvents=1;shape=mxgraph.aws4.gear;" parent="1" vertex="1">
          <mxGeometry x="1580" y="520" width="30" height="30" as="geometry" />
        </mxCell>
        <mxCell id="6n-yQPafIiMLYWiK96yH-71" value="&lt;div&gt;&lt;font&gt;Es öffnet sich ein Auswahlmenü mit den verschiedenen Status-Zuständen:&lt;/font&gt;&lt;/div&gt;&lt;div align=&quot;left&quot;&gt;&lt;ul&gt;&lt;li&gt;&lt;font&gt;unbeantwortete/&amp;nbsp;offene&amp;nbsp;Buchungsanfrage&lt;/font&gt;&lt;/li&gt;&lt;li&gt;&lt;font&gt;Buchungsanfrage&amp;nbsp;in&amp;nbsp;Bearbeitung&lt;/font&gt;&lt;/li&gt;&lt;li&gt;&lt;font&gt;bestätigte&amp;nbsp;Buchungsanfrage&lt;/font&gt;&lt;/li&gt;&lt;li&gt;&lt;font&gt;stornierte&amp;nbsp;Buchungsanfrage&lt;/font&gt;&lt;/li&gt;&lt;li&gt;&lt;font&gt;abgelehnte&amp;nbsp;Buchungsanfrage&lt;/font&gt;&lt;/li&gt;&lt;/ul&gt;&lt;/div&gt;" style="text;html=1;align=center;verticalAlign=middle;whiteSpace=wrap;rounded=0;fillColor=#fff2cc;strokeColor=#d6b656;fontColor=default;" parent="1" vertex="1">
          <mxGeometry x="740" y="-436.5" width="293" height="180" as="geometry" />
        </mxCell>
        <mxCell id="6n-yQPafIiMLYWiK96yH-73" value="Speichern&lt;font&gt;&lt;br&gt;&lt;/font&gt;" style="strokeWidth=1;shadow=0;dashed=0;align=center;html=1;shape=mxgraph.mockup.buttons.button;strokeColor=#82b366;mainText=;buttonStyle=round;fontSize=17;fontStyle=1;fillColor=#d5e8d4;whiteSpace=wrap;" parent="1" vertex="1">
          <mxGeometry x="520" y="39" width="110" height="30" as="geometry" />
        </mxCell>
        <mxCell id="6n-yQPafIiMLYWiK96yH-76" value="Änderungen wurden gespeichert." style="rounded=1;whiteSpace=wrap;html=1;fillColor=#d5e8d4;gradientColor=none;strokeColor=#82b366;" parent="1" vertex="1">
          <mxGeometry x="740" y="21" width="260" height="40" as="geometry" />
        </mxCell>
        <mxCell id="6n-yQPafIiMLYWiK96yH-78" style="edgeStyle=none;rounded=0;orthogonalLoop=1;jettySize=auto;html=1;strokeColor=#ABABAB;entryX=0;entryY=0.5;entryDx=0;entryDy=0;" parent="1" source="6n-yQPafIiMLYWiK96yH-73" target="6n-yQPafIiMLYWiK96yH-76" edge="1">
          <mxGeometry relative="1" as="geometry">
            <mxPoint x="900" y="19.579999999999927" as="targetPoint" />
            <mxPoint x="580" y="19.921333333333678" as="sourcePoint" />
          </mxGeometry>
        </mxCell>
        <mxCell id="6n-yQPafIiMLYWiK96yH-80" value="Bitte füllen Sie alle erforderlichen Felder aus." style="rounded=1;whiteSpace=wrap;html=1;fillColor=#f8cecc;gradientColor=none;strokeColor=#b85450;" parent="1" vertex="1">
          <mxGeometry x="740" y="71" width="260" height="40" as="geometry" />
        </mxCell>
        <mxCell id="6n-yQPafIiMLYWiK96yH-82" value="&lt;div&gt;Symbol, um anzuzeigen, dass es sich um ein erforderliches Feld handelt&lt;/div&gt;" style="text;html=1;align=center;verticalAlign=middle;whiteSpace=wrap;rounded=0;fontSize=12;fillColor=#fff2cc;strokeColor=#d6b656;fontColor=default;" parent="1" vertex="1">
          <mxGeometry x="-20" y="-722" width="135" height="80" as="geometry" />
        </mxCell>
        <mxCell id="6n-yQPafIiMLYWiK96yH-91" value="&lt;font color=&quot;#4f688c&quot;&gt;Bezeichnung der Prüfung&lt;br&gt;&lt;/font&gt;" style="text;html=1;align=left;verticalAlign=middle;whiteSpace=wrap;rounded=0;" parent="1" vertex="1">
          <mxGeometry x="169.3" y="-694" width="146.7" height="30" as="geometry" />
        </mxCell>
        <mxCell id="6n-yQPafIiMLYWiK96yH-96" value="&lt;div&gt;Mehrzeiliges Textfeld (scrollbar)&lt;/div&gt;" style="text;html=1;align=center;verticalAlign=middle;whiteSpace=wrap;rounded=0;fontSize=12;fillColor=#fff2cc;strokeColor=#d6b656;" parent="1" vertex="1">
          <mxGeometry x="740" y="-586" width="135" height="80" as="geometry" />
        </mxCell>
        <mxCell id="6n-yQPafIiMLYWiK96yH-107" value="Susi Support" style="rounded=1;fillColor=#F1F2F4;strokeColor=none;html=1;whiteSpace=wrap;fontColor=#596780;align=right;verticalAlign=middle;fontStyle=0;fontSize=12;sketch=0;spacingLeft=0;spacingRight=10;" parent="1" vertex="1">
          <mxGeometry x="348" y="-218" width="106" height="33" as="geometry" />
        </mxCell>
        <mxCell id="6n-yQPafIiMLYWiK96yH-108" value="Suchen" style="rounded=1;fillColor=none;strokeColor=#999999;html=1;whiteSpace=wrap;fontColor=#596780;align=left;fontSize=12;spacingLeft=10;sketch=0;strokeWidth=1;" parent="1" vertex="1">
          <mxGeometry x="474" y="-218" width="140" height="33" as="geometry" />
        </mxCell>
        <mxCell id="6n-yQPafIiMLYWiK96yH-109" value="" style="shape=triangle;direction=south;fillColor=#596780;strokeColor=none;html=1;sketch=0;" parent="6n-yQPafIiMLYWiK96yH-108" vertex="1">
          <mxGeometry x="1" y="0.5" width="12" height="6" relative="1" as="geometry">
            <mxPoint x="-20" y="-3" as="offset" />
          </mxGeometry>
        </mxCell>
        <mxCell id="6n-yQPafIiMLYWiK96yH-110" value="x" style="text;html=1;align=center;verticalAlign=middle;resizable=0;points=[];autosize=1;strokeColor=none;fillColor=none;" parent="1" vertex="1">
          <mxGeometry x="340" y="-216" width="30" height="30" as="geometry" />
        </mxCell>
        <mxCell id="6n-yQPafIiMLYWiK96yH-111" value="&lt;font color=&quot;#4f688c&quot;&gt;Ressourcen&lt;/font&gt;" style="text;html=1;align=left;verticalAlign=middle;whiteSpace=wrap;rounded=0;" parent="1" vertex="1">
          <mxGeometry x="175.6" y="-176" width="144.4" height="30" as="geometry" />
        </mxCell>
        <mxCell id="6n-yQPafIiMLYWiK96yH-112" value="&lt;font color=&quot;#4f688c&quot;&gt;Interne Notizen&lt;br&gt;&lt;/font&gt;" style="text;html=1;align=left;verticalAlign=middle;whiteSpace=wrap;rounded=0;" parent="1" vertex="1">
          <mxGeometry x="173.3" y="-88" width="136.7" height="30" as="geometry" />
        </mxCell>
        <mxCell id="6n-yQPafIiMLYWiK96yH-113" value="&lt;font color=&quot;#4f688c&quot;&gt;Semester&lt;/font&gt;" style="text;html=1;align=left;verticalAlign=middle;whiteSpace=wrap;rounded=0;" parent="1" vertex="1">
          <mxGeometry x="173.3" y="-661" width="116.7" height="30" as="geometry" />
        </mxCell>
        <mxCell id="6n-yQPafIiMLYWiK96yH-114" value="Sommersemester 2024" style="rounded=1;fillColor=#F1F2F4;strokeColor=none;html=1;whiteSpace=wrap;fontColor=#596780;align=left;fontSize=12;spacingLeft=10;sketch=0;" parent="1" vertex="1">
          <mxGeometry x="348" y="-661" width="216" height="33" as="geometry" />
        </mxCell>
        <mxCell id="6n-yQPafIiMLYWiK96yH-117" value="&lt;font color=&quot;#4f688c&quot;&gt;Anzahl Teilnehmende&lt;br&gt;&lt;/font&gt;" style="text;html=1;align=left;verticalAlign=middle;whiteSpace=wrap;rounded=0;" parent="1" vertex="1">
          <mxGeometry x="171" y="-486.5" width="159" height="30" as="geometry" />
        </mxCell>
        <mxCell id="6n-yQPafIiMLYWiK96yH-118" value="120" style="rounded=1;whiteSpace=wrap;html=1;strokeColor=#7EA6E0;" parent="1" vertex="1">
          <mxGeometry x="349" y="-484" width="91" height="30" as="geometry" />
        </mxCell>
        <mxCell id="6n-yQPafIiMLYWiK96yH-122" value="" style="html=1;verticalLabelPosition=bottom;align=center;labelBackgroundColor=#ffffff;verticalAlign=top;strokeWidth=2;strokeColor=#7EA6E0;shadow=0;dashed=0;shape=mxgraph.ios7.icons.clock;" parent="1" vertex="1">
          <mxGeometry x="136.15" y="-586" width="23.85" height="26" as="geometry" />
        </mxCell>
        <mxCell id="6n-yQPafIiMLYWiK96yH-123" value="&lt;font color=&quot;#4f688c&quot;&gt;Prüfungsende&lt;/font&gt;" style="text;html=1;align=left;verticalAlign=middle;whiteSpace=wrap;rounded=0;" parent="1" vertex="1">
          <mxGeometry x="172" y="-554" width="158" height="30" as="geometry" />
        </mxCell>
        <mxCell id="6n-yQPafIiMLYWiK96yH-124" value="" style="shape=image;verticalLabelPosition=bottom;labelBackgroundColor=default;verticalAlign=top;aspect=fixed;imageAspect=0;image=data:image/png,iVBORw0KGgoAAAANSUhEUgAAAbUAAAA3CAYAAACLpdS6AAALJUlEQVR4Xu2dbagexRXHT76be9UPkkSfqxUhoOSDYBETSQIJGtMaGow0mBQNCIIv4AtawZYWpaKWaqGtIBSimIhiJCXBECSBJG2uBl+iBIWA+JLHJsEP6r3xu965j2Pmbnaf+c/u7M7L87+f4u6ZmXN+5+z8d3Z2H+f9MPMn/CMBEiABEiCBDAjMo6hlkEWGQAIkQAIkMEuAosZCIAESIAESyIYARS2bVDIQEiABEiABihprgARIgARIIBsCFLVsUslASIAESIAEKGqsARIgARIggWwIUNSySSUDIQESIAESoKixBkiABEiABLIhUEvUTp3+Wj45/qn0vzol301NJwXj/PEx6V2yUK5cfIUsXHBRI99T5tAo8EQaM9d+EkWOA47k4J+Dnwqd24uzqO0/OCkn+idlyVWL5fLLJuTCC8bb8Ku1Pr/5dko+++KEHPv4uEz0FsmqFUtrjZU6h1pBJ9aIufaTMHIccCQHvxz8VOe5vTiJ2s7db8nY/PNk1cp6QtBWEHX73X9gUqbPfC/rb77BqYvcODgFn6gxc+0nceQ44EgOzTj4qcbyXmBRUysTmfmVyFwETeNQxSnzZuICV2y5cmizyGLpm7n2kwlyPDuhc+4YCLwLBz9VWN0LJGpq72jvvkOyZfOGtv0J0v/WbTtkzerl1j223DkEgd/xoMy1H+DkOOBIDm4c/FTf8F4gUVOrk/Gx+XLN1Uu68KnzMd47ekymps9YV2u5c+gcfIABmWs/0MlxwJEc3Dj4qT4Povbi9jdk3drVyb0UggJUG8C79uyTOzbdMrRJ7hxQXinbMdd+skeOA47k4MbBT/V5ELW/P79V7r97Sxf+BBsDiRGxCRYAB4YJIHlEbOABMzVEGCE2qeNBYkRsRoFDFzFCjx+ZkEEqRoFDF0UXegwkj4hN6DhCj48wQmxCx9F0fCRGxKapH6HbxxIjRe2nSkASgtiELiyObyeA5BGxsY+UtwXCCLFJnRISI2IzChy6iJGiRlHros6iGgOZYBCbqIIK4AzCCLEJ4LrXIZEYERuvTgXorE6My259eNbTw6//dY7HVceRsChqFDWkTrKyQS4+xCYrKDWCQRghNjWGjqoJEiNiE1VQNZypE+OCa383O9LpIy/PGbHqOOIWRY2ihtRJVjbIxYfYZAWlRjAII8SmxtBRNUFiRGyiCqqGM2iMD/7l3/LKroNOI9y2boU8+9idUJvORO2eBx6RzRtvleuu/eUcx5557h9y4NDh2WO/mPktyX899wzkuGm0+8298sGHH8mfHvu9c1vdAEkIYlPlwNtH3pUnnvqb7Nn5KuSj4nJprye/3fAbyH5UjGLPtc6zzsfK5cvkkQfug2seaa8707Yv/PNZ6V28yKkEYudoBlM2d7hwGgYmNw4q1rKasxVHVxyUH3oVZvOpeL64mqtq37qomaL1x0cfmiNqr+34jxw6PPmzkKnivXSid84kYCvKx598etbk12vX1BY2RLAQG4qaa6ni9urCiz3Xqt5NEVu7fqPcvmnjzzcntpq3tS9O9p/P/Di3q6ilwFHFOWzucOFUVWE5cFDi/t/Jd5zmzCKPLjkkL2rm6kRd3EVRKx7r//+k3HXvg/BFaiZDJ6qusCGChdhQ1HCRcrFMKddmXEURc635Ynvdtzr+Zb8/+5TDRdRS4WibO4q1U8UJEbSY5w4bB10HxacB6LXVdT2gfjWxa32lpp2rupiLj+PKxK8swLJkNClORLAQG1TUVJzmZKQFXfMwHz+qf6s/s3BdL+ImRRK6bWq5NnmpSWnbq6/PPo0o5rjq2qhqr4+b/RTraFiuUuWIzAkmZ1u95sShiaiF4JD8Ss0srmJhVhVh1d6brVCbnkcEC7FpQ9TKWIXi1JRzDO2RPCI2SCzmDUmdmi+7oTFz7yJqiL8uNggjxMY2JiJqZZxs/fo6j8SI2Nj8KeOgRO2l7Wf36evsp9nGRc+jMSa/p1Z1NzrsAl++bGnnL0ggCUFs2hA11ac5eVXd8aPFN+p2SB4RGxtHPeHo1bdrzRfbq/GKkzdFTaSMky03Ps8jtYLY2HxCxF3ZhBI2NEYtav3/bZ0NuXf94CcYbf8dzYsidUSt7C3JYsKHLZ1/ddON8uc/PGqrkTnnkYQgNm2Jmvk4sskjBycokRinlmstPmq/y3y87rJS0y9J2Nq7iFqKHPUNXXE/XpdmGSdb2ebIQcfs8pZ1CA7Kz6xFrewVd+RuRCewLCl1BE31hwgWYjNM1PTeir5Q0T01ZW9OiKP46DGlXFe9xVs14RRrvqq9Oq7ediz7Q+/OU+JYdUOsj9d5WzrFucPGwawH16c4XdeDKWq2m4/i+ehXasjEjgRtJqWuoHUhamVvwZmiVpzwyr5T05Ofy/duCMNUbFLItW1vB3lBSOUDfZvNZaVWNqHHfM0Mm8xtnJGaTqGezDiQG36XlVqIeshe1FRhfnmiP+c7tTr7aao43z/6ofMjR7NgkFUYYlN1MRVXV8W7TFWw6q/s7Ufdp+bl+i0fcoGnYhNzrpFPUobVPNK+mKc6oqb6iJljWYzm48c6nKrqO2UOKibzez3NxfwuEr2uu+JgipptD614PomVmk6K/kUR9BEKmigXO0SwEJuyC1IdKys0LWTqvFq1qW/0homaz4vZhU1utkgeEZsiF52fMl7mpGx+VGzWPNq+ePfu8p2az1wijBAbm09VnwPZONv69XUeiRGxsflTtlIrPpKu2nu09e3jPBpjNntqPqC12QeSEMSmTR9dvsVp04/U+0byiNikzqGp/wgjxKapH6HbIzEiNqHjaDo+GmM2r/Q3BdZ2eyQhiE2bfqq7sjqPZ9v0KcW+kTwiNinG7tNnhBFi49OnEH0hMSI2IXz3OSYaYzY/aOwTXht9IQlBbNrwTT+uCvl4to24QvWJ5BGxCeV/LOMijBCbWOKp6wcSI2JTd/xY2sUSY2c/kxUL+Co/kIQgNrHHSf/a/3xjVBgj1wNikzovJEbEZhQ4dBEjRe0nykjRITZdJI1jNCOA5BGxaeZF+q0RRohN6iSQGBGbUeDQRYwUNYpaF3UW1RjIBIPYRBVUAGcQRohNANe9DonEiNh4dSpAZ7HECInai9vfkHVrV8uFF4wHQNX+kN98OyW79uyTOzbdMnSw3Dm0Tzr8CMy1nxyQ44AjObhx8FN9w3uBRG3/wUkZH5sv11y9pAufOh/jvaPHZGr6jKxasXTo2Llz6Bx8gAGZaz/QyXHAkRzcOPipPg+idur017J33yHZsnlDFz51PsbWbTtkzerlsnDBRUPHzp1D5+ADDMhc+4FOjgOO5ODGwU/1eRA11YVapcgPIqtWDl/NdOG0zzH2H5iJa95MXJZVmh4zVw4+mcbaF3PtJzPkOOBIDvU4+KnC6l6gx4+6+c7db8nY/POyETZVlNNnvpf1N9/gxDk3Dk7BJ2rMXPtJHDmencg5dwyEvQ4HP9VY3ouTqOkV24n+SVly1WK5/LKJ5F4eURu7n8387zuOfXxcJnqL4BVaEZ9asaXMoc2iiqVv5tpPJshxwJEc/HLwU53n9uIsaqoLtbf0yfFPpf/VKfluarot31rp9/zxMeldslCuXHyFdQ/N5kDKHGyx5XCeufaTRXIccCQH/xz8VOjcXmqJWhuOsE8SIAESIAESaEqAotaUINuTAAmQAAlEQ4CiFk0q6AgJkAAJkEBTAhS1pgTZngRIgARIIBoCFLVoUkFHSIAESIAEmhKgqDUlyPYkQAIkQALREKCoRZMKOkICJEACJNCUAEWtKUG2JwESIAESiIYARS2aVNAREiABEiCBpgR+BDoA6vIpzYs+AAAAAElFTkSuQmCC;" parent="1" vertex="1">
          <mxGeometry x="342.59000000000003" y="-558" width="317.82" height="40" as="geometry" />
        </mxCell>
        <mxCell id="6n-yQPafIiMLYWiK96yH-126" value="&lt;font color=&quot;#4f688c&quot;&gt;Bearbeitungszeit in Minuten&lt;br&gt;&lt;/font&gt;" style="text;html=1;align=left;verticalAlign=middle;whiteSpace=wrap;rounded=0;" parent="1" vertex="1">
          <mxGeometry x="169" y="-519" width="171" height="30" as="geometry" />
        </mxCell>
        <mxCell id="6n-yQPafIiMLYWiK96yH-127" value="90" style="rounded=1;whiteSpace=wrap;html=1;strokeColor=#7EA6E0;" parent="1" vertex="1">
          <mxGeometry x="348" y="-518" width="92" height="30" as="geometry" />
        </mxCell>
        <mxCell id="Xh5SDCKvO4uXyYsXdFf4-6" value="" style="group" parent="1" vertex="1" connectable="0">
          <mxGeometry x="135" y="-492" width="30" height="35" as="geometry" />
        </mxCell>
        <mxCell id="6n-yQPafIiMLYWiK96yH-119" value="" style="shape=actor;whiteSpace=wrap;html=1;strokeColor=#7EA6E0;aspect=fixed;" parent="Xh5SDCKvO4uXyYsXdFf4-6" vertex="1">
          <mxGeometry x="2" y="5" width="16" height="20" as="geometry" />
        </mxCell>
        <mxCell id="Xh5SDCKvO4uXyYsXdFf4-5" value="" style="shape=actor;whiteSpace=wrap;html=1;strokeColor=#7EA6E0;aspect=fixed;" parent="Xh5SDCKvO4uXyYsXdFf4-6" vertex="1">
          <mxGeometry x="10" y="10" width="16" height="20" as="geometry" />
        </mxCell>
        <mxCell id="Xh5SDCKvO4uXyYsXdFf4-13" value="&lt;div&gt;&lt;div align=&quot;left&quot;&gt;&lt;font color=&quot;#4f688c&quot;&gt;Interne Notizen (vom gesamten Serviceteam lesbar und bearbeitbar)&lt;/font&gt;&lt;/div&gt;&lt;div align=&quot;left&quot;&gt;&lt;font color=&quot;#4f688c&quot;&gt;Beispiel:&lt;br&gt;&lt;/font&gt;&lt;/div&gt;&lt;/div&gt;&lt;div&gt;Zusätzliche Software &quot;Exam Master 2000&quot; ist installiert.&lt;br&gt;&lt;/div&gt;&lt;div&gt;Konfigurationsdatei wurde angepasst.&lt;br&gt;&lt;/div&gt;" style="rounded=1;whiteSpace=wrap;html=1;align=left;verticalAlign=top;" parent="1" vertex="1">
          <mxGeometry x="172" y="-56" width="458" height="77" as="geometry" />
        </mxCell>
        <mxCell id="Xh5SDCKvO4uXyYsXdFf4-14" value="" style="html=1;verticalLabelPosition=bottom;labelBackgroundColor=#ffffff;verticalAlign=top;shadow=0;dashed=0;strokeWidth=2;shape=mxgraph.ios7.misc.scroll_(vertical);fillColor=#a0a0a0;" parent="1" vertex="1">
          <mxGeometry x="615" y="-47" width="6" height="62.8" as="geometry" />
        </mxCell>
        <mxCell id="Xh5SDCKvO4uXyYsXdFf4-15" style="edgeStyle=none;rounded=0;orthogonalLoop=1;jettySize=auto;html=1;strokeColor=#ABABAB;entryX=1;entryY=0.597;entryDx=0;entryDy=0;entryPerimeter=0;" parent="1" target="Xh5SDCKvO4uXyYsXdFf4-13" edge="1">
          <mxGeometry relative="1" as="geometry">
            <mxPoint x="638.996040118871" y="-20.73999999999978" as="targetPoint" />
            <mxPoint x="830" y="-490" as="sourcePoint" />
          </mxGeometry>
        </mxCell>
        <mxCell id="hZRU2H-SfIQ9f5EC4YqQ-78" value="&lt;font color=&quot;#4f688c&quot;&gt;Detailansicht Prüfungstermin&lt;br&gt;&lt;/font&gt;" style="html=1;shadow=0;dashed=0;shape=mxgraph.bootstrap.rrect;rSize=5;strokeColor=#6c8ebf;strokeWidth=1;fillColor=#dae8fc;whiteSpace=wrap;align=center;verticalAlign=middle;spacingLeft=0;fontStyle=0;fontSize=16;spacing=5;" parent="1" vertex="1">
          <mxGeometry x="129" y="-740" width="550" height="40" as="geometry" />
        </mxCell>
        <mxCell id="hZRU2H-SfIQ9f5EC4YqQ-82" value="" style="html=1;verticalLabelPosition=bottom;align=center;labelBackgroundColor=#ffffff;verticalAlign=top;strokeWidth=2;strokeColor=#7EA6E0;shadow=0;dashed=0;shape=mxgraph.ios7.icons.most_viewed;pointerEvents=1" parent="1" vertex="1">
          <mxGeometry x="132.8" y="-414" width="28.2" height="22.8" as="geometry" />
        </mxCell>
        <mxCell id="hZRU2H-SfIQ9f5EC4YqQ-83" value="" style="html=1;verticalLabelPosition=bottom;align=center;labelBackgroundColor=#ffffff;verticalAlign=top;strokeWidth=2;strokeColor=#7EA6E0;shadow=0;dashed=0;shape=mxgraph.ios7.icons.location;" parent="1" vertex="1">
          <mxGeometry x="137" y="-451" width="24" height="30" as="geometry" />
        </mxCell>
        <mxCell id="hZRU2H-SfIQ9f5EC4YqQ-87" value="" style="html=1;verticalLabelPosition=bottom;align=center;labelBackgroundColor=#ffffff;verticalAlign=top;strokeWidth=2;strokeColor=#7EA6E0;shadow=0;dashed=0;shape=mxgraph.ios7.icons.home;" parent="1" vertex="1">
          <mxGeometry x="137" y="-622" width="24" height="25.5" as="geometry" />
        </mxCell>
        <mxCell id="hZRU2H-SfIQ9f5EC4YqQ-88" value="&lt;font color=&quot;#4f688c&quot;&gt;Prüfungsbeginn&lt;/font&gt;" style="text;html=1;align=left;verticalAlign=middle;whiteSpace=wrap;rounded=0;" parent="1" vertex="1">
          <mxGeometry x="173" y="-590" width="116" height="30" as="geometry" />
        </mxCell>
        <mxCell id="hZRU2H-SfIQ9f5EC4YqQ-89" value="&lt;font color=&quot;#4f688c&quot;&gt;Institut oder Fakultät&lt;br&gt;&lt;/font&gt;" style="text;html=1;align=left;verticalAlign=middle;whiteSpace=wrap;rounded=0;" parent="1" vertex="1">
          <mxGeometry x="173" y="-626.5" width="136" height="30" as="geometry" />
        </mxCell>
        <mxCell id="hZRU2H-SfIQ9f5EC4YqQ-90" value="&lt;font color=&quot;#4f688c&quot;&gt;Informationen zur Prüfung (Kommentarfeld des Buchenden)&lt;br&gt;&lt;/font&gt;" style="text;html=1;align=left;verticalAlign=middle;whiteSpace=wrap;rounded=0;" parent="1" vertex="1">
          <mxGeometry x="171" y="-417.20000000000005" width="336" height="30" as="geometry" />
        </mxCell>
        <mxCell id="hZRU2H-SfIQ9f5EC4YqQ-91" value="&lt;font color=&quot;#4f688c&quot;&gt;Raum&lt;/font&gt;" style="text;html=1;align=left;verticalAlign=middle;whiteSpace=wrap;rounded=0;" parent="1" vertex="1">
          <mxGeometry x="170" y="-449" width="106" height="30" as="geometry" />
        </mxCell>
        <mxCell id="hZRU2H-SfIQ9f5EC4YqQ-113" value="" style="html=1;verticalLabelPosition=bottom;align=center;labelBackgroundColor=#ffffff;verticalAlign=top;strokeWidth=2;strokeColor=#A9C4EB;shadow=0;dashed=0;shape=mxgraph.ios7.icons.lightbulb;" parent="1" vertex="1">
          <mxGeometry x="139" y="-301" width="22.8" height="29.7" as="geometry" />
        </mxCell>
        <mxCell id="hZRU2H-SfIQ9f5EC4YqQ-114" value="&lt;font color=&quot;#4f688c&quot;&gt;Status&lt;/font&gt;" style="text;html=1;align=left;verticalAlign=middle;whiteSpace=wrap;rounded=0;" parent="1" vertex="1">
          <mxGeometry x="171" y="-297.15" width="66" height="30" as="geometry" />
        </mxCell>
        <mxCell id="6n-yQPafIiMLYWiK96yH-31" value="&lt;font color=&quot;#4f688c&quot;&gt;Verantwortliche Person&lt;br&gt;&lt;/font&gt;" style="text;html=1;align=left;verticalAlign=middle;whiteSpace=wrap;rounded=0;" parent="1" vertex="1">
          <mxGeometry x="171" y="-257.15" width="136" height="30" as="geometry" />
        </mxCell>
        <mxCell id="6n-yQPafIiMLYWiK96yH-32" value="" style="shape=actor;whiteSpace=wrap;html=1;strokeColor=#7EA6E0;" parent="1" vertex="1">
          <mxGeometry x="138.7" y="-264" width="22.3" height="30.5" as="geometry" />
        </mxCell>
        <mxCell id="6n-yQPafIiMLYWiK96yH-75" value="x" style="text;html=1;align=center;verticalAlign=middle;resizable=0;points=[];autosize=1;fillColor=#f8cecc;gradientColor=#ea6b66;strokeColor=#000000;fontColor=#FFFFFF;fontSize=17;textShadow=0;labelBorderColor=none;labelBackgroundColor=none;fontStyle=1" parent="1" vertex="1">
          <mxGeometry x="643" y="-736" width="30" height="30" as="geometry" />
        </mxCell>
        <mxCell id="6n-yQPafIiMLYWiK96yH-81" value="" style="shadow=0;dashed=0;html=1;strokeColor=none;fillColor=#4495D1;labelPosition=center;verticalLabelPosition=bottom;verticalAlign=top;align=center;outlineConnect=0;shape=mxgraph.veeam.2d.alert;" parent="1" vertex="1">
          <mxGeometry x="141" y="-692" width="20" height="20" as="geometry" />
        </mxCell>
        <mxCell id="6n-yQPafIiMLYWiK96yH-90" value="Testologie 1 Sommersemester 2024" style="rounded=1;whiteSpace=wrap;html=1;strokeColor=#7EA6E0;align=left;" parent="1" vertex="1">
          <mxGeometry x="347" y="-696" width="277" height="30" as="geometry" />
        </mxCell>
        <mxCell id="6n-yQPafIiMLYWiK96yH-92" value="" style="shape=image;verticalLabelPosition=bottom;labelBackgroundColor=default;verticalAlign=top;aspect=fixed;imageAspect=0;image=data:image/png,iVBORw0KGgoAAAANSUhEUgAAAbUAAAA3CAYAAACLpdS6AAALJUlEQVR4Xu2dbagexRXHT76be9UPkkSfqxUhoOSDYBETSQIJGtMaGow0mBQNCIIv4AtawZYWpaKWaqGtIBSimIhiJCXBECSBJG2uBl+iBIWA+JLHJsEP6r3xu965j2Pmbnaf+c/u7M7L87+f4u6ZmXN+5+z8d3Z2H+f9MPMn/CMBEiABEiCBDAjMo6hlkEWGQAIkQAIkMEuAosZCIAESIAESyIYARS2bVDIQEiABEiABihprgARIgARIIBsCFLVsUslASIAESIAEKGqsARIgARIggWwIUNSySSUDIQESIAESoKixBkiABEiABLIhUEvUTp3+Wj45/qn0vzol301NJwXj/PEx6V2yUK5cfIUsXHBRI99T5tAo8EQaM9d+EkWOA47k4J+Dnwqd24uzqO0/OCkn+idlyVWL5fLLJuTCC8bb8Ku1Pr/5dko+++KEHPv4uEz0FsmqFUtrjZU6h1pBJ9aIufaTMHIccCQHvxz8VOe5vTiJ2s7db8nY/PNk1cp6QtBWEHX73X9gUqbPfC/rb77BqYvcODgFn6gxc+0nceQ44EgOzTj4qcbyXmBRUysTmfmVyFwETeNQxSnzZuICV2y5cmizyGLpm7n2kwlyPDuhc+4YCLwLBz9VWN0LJGpq72jvvkOyZfOGtv0J0v/WbTtkzerl1j223DkEgd/xoMy1H+DkOOBIDm4c/FTf8F4gUVOrk/Gx+XLN1Uu68KnzMd47ekymps9YV2u5c+gcfIABmWs/0MlxwJEc3Dj4qT4Povbi9jdk3drVyb0UggJUG8C79uyTOzbdMrRJ7hxQXinbMdd+skeOA47k4MbBT/V5ELW/P79V7r97Sxf+BBsDiRGxCRYAB4YJIHlEbOABMzVEGCE2qeNBYkRsRoFDFzFCjx+ZkEEqRoFDF0UXegwkj4hN6DhCj48wQmxCx9F0fCRGxKapH6HbxxIjRe2nSkASgtiELiyObyeA5BGxsY+UtwXCCLFJnRISI2IzChy6iJGiRlHros6iGgOZYBCbqIIK4AzCCLEJ4LrXIZEYERuvTgXorE6My259eNbTw6//dY7HVceRsChqFDWkTrKyQS4+xCYrKDWCQRghNjWGjqoJEiNiE1VQNZypE+OCa383O9LpIy/PGbHqOOIWRY2ihtRJVjbIxYfYZAWlRjAII8SmxtBRNUFiRGyiCqqGM2iMD/7l3/LKroNOI9y2boU8+9idUJvORO2eBx6RzRtvleuu/eUcx5557h9y4NDh2WO/mPktyX899wzkuGm0+8298sGHH8mfHvu9c1vdAEkIYlPlwNtH3pUnnvqb7Nn5KuSj4nJprye/3fAbyH5UjGLPtc6zzsfK5cvkkQfug2seaa8707Yv/PNZ6V28yKkEYudoBlM2d7hwGgYmNw4q1rKasxVHVxyUH3oVZvOpeL64mqtq37qomaL1x0cfmiNqr+34jxw6PPmzkKnivXSid84kYCvKx598etbk12vX1BY2RLAQG4qaa6ni9urCiz3Xqt5NEVu7fqPcvmnjzzcntpq3tS9O9p/P/Di3q6ilwFHFOWzucOFUVWE5cFDi/t/Jd5zmzCKPLjkkL2rm6kRd3EVRKx7r//+k3HXvg/BFaiZDJ6qusCGChdhQ1HCRcrFMKddmXEURc635Ynvdtzr+Zb8/+5TDRdRS4WibO4q1U8UJEbSY5w4bB10HxacB6LXVdT2gfjWxa32lpp2rupiLj+PKxK8swLJkNClORLAQG1TUVJzmZKQFXfMwHz+qf6s/s3BdL+ImRRK6bWq5NnmpSWnbq6/PPo0o5rjq2qhqr4+b/RTraFiuUuWIzAkmZ1u95sShiaiF4JD8Ss0srmJhVhVh1d6brVCbnkcEC7FpQ9TKWIXi1JRzDO2RPCI2SCzmDUmdmi+7oTFz7yJqiL8uNggjxMY2JiJqZZxs/fo6j8SI2Nj8KeOgRO2l7Wf36evsp9nGRc+jMSa/p1Z1NzrsAl++bGnnL0ggCUFs2hA11ac5eVXd8aPFN+p2SB4RGxtHPeHo1bdrzRfbq/GKkzdFTaSMky03Ps8jtYLY2HxCxF3ZhBI2NEYtav3/bZ0NuXf94CcYbf8dzYsidUSt7C3JYsKHLZ1/ddON8uc/PGqrkTnnkYQgNm2Jmvk4sskjBycokRinlmstPmq/y3y87rJS0y9J2Nq7iFqKHPUNXXE/XpdmGSdb2ebIQcfs8pZ1CA7Kz6xFrewVd+RuRCewLCl1BE31hwgWYjNM1PTeir5Q0T01ZW9OiKP46DGlXFe9xVs14RRrvqq9Oq7ediz7Q+/OU+JYdUOsj9d5WzrFucPGwawH16c4XdeDKWq2m4/i+ehXasjEjgRtJqWuoHUhamVvwZmiVpzwyr5T05Ofy/duCMNUbFLItW1vB3lBSOUDfZvNZaVWNqHHfM0Mm8xtnJGaTqGezDiQG36XlVqIeshe1FRhfnmiP+c7tTr7aao43z/6ofMjR7NgkFUYYlN1MRVXV8W7TFWw6q/s7Ufdp+bl+i0fcoGnYhNzrpFPUobVPNK+mKc6oqb6iJljWYzm48c6nKrqO2UOKibzez3NxfwuEr2uu+JgipptD614PomVmk6K/kUR9BEKmigXO0SwEJuyC1IdKys0LWTqvFq1qW/0homaz4vZhU1utkgeEZsiF52fMl7mpGx+VGzWPNq+ePfu8p2az1wijBAbm09VnwPZONv69XUeiRGxsflTtlIrPpKu2nu09e3jPBpjNntqPqC12QeSEMSmTR9dvsVp04/U+0byiNikzqGp/wgjxKapH6HbIzEiNqHjaDo+GmM2r/Q3BdZ2eyQhiE2bfqq7sjqPZ9v0KcW+kTwiNinG7tNnhBFi49OnEH0hMSI2IXz3OSYaYzY/aOwTXht9IQlBbNrwTT+uCvl4to24QvWJ5BGxCeV/LOMijBCbWOKp6wcSI2JTd/xY2sUSY2c/kxUL+Co/kIQgNrHHSf/a/3xjVBgj1wNikzovJEbEZhQ4dBEjRe0nykjRITZdJI1jNCOA5BGxaeZF+q0RRohN6iSQGBGbUeDQRYwUNYpaF3UW1RjIBIPYRBVUAGcQRohNANe9DonEiNh4dSpAZ7HECInai9vfkHVrV8uFF4wHQNX+kN98OyW79uyTOzbdMnSw3Dm0Tzr8CMy1nxyQ44AjObhx8FN9w3uBRG3/wUkZH5sv11y9pAufOh/jvaPHZGr6jKxasXTo2Llz6Bx8gAGZaz/QyXHAkRzcOPipPg+idur017J33yHZsnlDFz51PsbWbTtkzerlsnDBRUPHzp1D5+ADDMhc+4FOjgOO5ODGwU/1eRA11YVapcgPIqtWDl/NdOG0zzH2H5iJa95MXJZVmh4zVw4+mcbaF3PtJzPkOOBIDvU4+KnC6l6gx4+6+c7db8nY/POyETZVlNNnvpf1N9/gxDk3Dk7BJ2rMXPtJHDmencg5dwyEvQ4HP9VY3ouTqOkV24n+SVly1WK5/LKJ5F4eURu7n8387zuOfXxcJnqL4BVaEZ9asaXMoc2iiqVv5tpPJshxwJEc/HLwU53n9uIsaqoLtbf0yfFPpf/VKfluarot31rp9/zxMeldslCuXHyFdQ/N5kDKHGyx5XCeufaTRXIccCQH/xz8VOjcXmqJWhuOsE8SIAESIAESaEqAotaUINuTAAmQAAlEQ4CiFk0q6AgJkAAJkEBTAhS1pgTZngRIgARIIBoCFLVoUkFHSIAESIAEmhKgqDUlyPYkQAIkQALREKCoRZMKOkICJEACJNCUAEWtKUG2JwESIAESiIYARS2aVNAREiABEiCBpgR+BDoA6vIpzYs+AAAAAElFTkSuQmCC;" parent="1" vertex="1">
          <mxGeometry x="342.59000000000003" y="-593" width="317.82" height="40" as="geometry" />
        </mxCell>
        <mxCell id="6n-yQPafIiMLYWiK96yH-93" value="Testfakultät" style="rounded=1;whiteSpace=wrap;html=1;strokeColor=#7EA6E0;align=left;" parent="1" vertex="1">
          <mxGeometry x="348" y="-622" width="277" height="30" as="geometry" />
        </mxCell>
        <mxCell id="6n-yQPafIiMLYWiK96yH-94" value="E-Assessment-Center" style="rounded=1;fillColor=#F1F2F4;strokeColor=none;html=1;whiteSpace=wrap;fontColor=#596780;align=left;fontSize=12;spacingLeft=10;sketch=0;" parent="1" vertex="1">
          <mxGeometry x="348" y="-448" width="276" height="33" as="geometry" />
        </mxCell>
        <mxCell id="55VcoNajXq4q3Io8COJS-9" style="edgeStyle=orthogonalEdgeStyle;rounded=0;orthogonalLoop=1;jettySize=auto;html=1;fontColor=#999999;strokeColor=#999999;" parent="1" source="6n-yQPafIiMLYWiK96yH-100" target="6n-yQPafIiMLYWiK96yH-71" edge="1">
          <mxGeometry relative="1" as="geometry" />
        </mxCell>
        <mxCell id="6n-yQPafIiMLYWiK96yH-100" value="in Bearbeitung" style="rounded=1;fillColor=#F1F2F4;strokeColor=none;html=1;whiteSpace=wrap;fontColor=#596780;align=left;fontSize=12;spacingLeft=10;sketch=0;" parent="1" vertex="1">
          <mxGeometry x="347" y="-297" width="276" height="33" as="geometry" />
        </mxCell>
        <mxCell id="6n-yQPafIiMLYWiK96yH-101" value="Sandy Service" style="rounded=1;fillColor=#F1F2F4;strokeColor=none;html=1;whiteSpace=wrap;fontColor=#596780;align=right;verticalAlign=middle;fontStyle=0;fontSize=12;sketch=0;spacingLeft=0;spacingRight=10;" parent="1" vertex="1">
          <mxGeometry x="348" y="-256" width="106" height="33" as="geometry" />
        </mxCell>
        <mxCell id="6n-yQPafIiMLYWiK96yH-102" value="x" style="text;html=1;align=center;verticalAlign=middle;resizable=0;points=[];autosize=1;strokeColor=none;fillColor=none;" parent="1" vertex="1">
          <mxGeometry x="340" y="-254" width="30" height="30" as="geometry" />
        </mxCell>
        <mxCell id="6n-yQPafIiMLYWiK96yH-103" value="Suchen" style="rounded=1;fillColor=none;strokeColor=#999999;html=1;whiteSpace=wrap;fontColor=#596780;align=left;fontSize=12;spacingLeft=10;sketch=0;strokeWidth=1;" parent="1" vertex="1">
          <mxGeometry x="474" y="-256" width="140" height="33" as="geometry" />
        </mxCell>
        <mxCell id="6n-yQPafIiMLYWiK96yH-104" value="" style="shape=triangle;direction=south;fillColor=#596780;strokeColor=none;html=1;sketch=0;" parent="6n-yQPafIiMLYWiK96yH-103" vertex="1">
          <mxGeometry x="1" y="0.5" width="12" height="6" relative="1" as="geometry">
            <mxPoint x="-20" y="-3" as="offset" />
          </mxGeometry>
        </mxCell>
        <mxCell id="6n-yQPafIiMLYWiK96yH-106" value="" style="shape=triangle;direction=south;fillColor=#596780;strokeColor=none;html=1;sketch=0;" parent="1" vertex="1">
          <mxGeometry x="602.0000000000005" y="-434.5" width="12" height="6" as="geometry" />
        </mxCell>
        <mxCell id="6n-yQPafIiMLYWiK96yH-105" value="" style="shape=triangle;direction=south;fillColor=#596780;strokeColor=none;html=1;sketch=0;" parent="1" vertex="1">
          <mxGeometry x="602.0000000000005" y="-283.5" width="12" height="6" as="geometry" />
        </mxCell>
        <mxCell id="Xh5SDCKvO4uXyYsXdFf4-9" value="" style="html=1;verticalLabelPosition=bottom;labelBackgroundColor=#ffffff;verticalAlign=top;shadow=0;dashed=0;strokeWidth=2;shape=mxgraph.ios7.misc.scroll_(vertical);fillColor=#a0a0a0;" parent="1" vertex="1">
          <mxGeometry x="615" y="-380" width="6" height="62.8" as="geometry" />
        </mxCell>
        <mxCell id="6n-yQPafIiMLYWiK96yH-99" style="edgeStyle=none;rounded=0;orthogonalLoop=1;jettySize=auto;html=1;strokeColor=#ABABAB;" parent="1" edge="1">
          <mxGeometry relative="1" as="geometry">
            <mxPoint x="623.996040118871" y="-368.7399999999998" as="targetPoint" />
            <mxPoint x="830" y="-520" as="sourcePoint" />
          </mxGeometry>
        </mxCell>
        <mxCell id="Xh5SDCKvO4uXyYsXdFf4-17" style="edgeStyle=none;rounded=0;orthogonalLoop=1;jettySize=auto;html=1;strokeColor=#ABABAB;entryX=1;entryY=0.5;entryDx=0;entryDy=0;" parent="1" source="6n-yQPafIiMLYWiK96yH-81" target="6n-yQPafIiMLYWiK96yH-82" edge="1">
          <mxGeometry relative="1" as="geometry">
            <mxPoint x="-71.00395988112905" y="-533.6199999999998" as="targetPoint" />
            <mxPoint x="141" y="-681" as="sourcePoint" />
          </mxGeometry>
        </mxCell>
        <mxCell id="Xh5SDCKvO4uXyYsXdFf4-18" value="" style="sketch=0;pointerEvents=1;shadow=0;dashed=0;html=1;strokeColor=none;fillColor=#7EA6E0;labelPosition=center;verticalLabelPosition=bottom;verticalAlign=top;outlineConnect=0;align=center;shape=mxgraph.office.concepts.calendar;" parent="1" vertex="1">
          <mxGeometry x="136" y="-660" width="25" height="30" as="geometry" />
        </mxCell>
        <mxCell id="Xh5SDCKvO4uXyYsXdFf4-19" value="" style="sketch=0;outlineConnect=0;fontColor=#232F3E;gradientColor=none;fillColor=#7EA6E0;strokeColor=none;dashed=0;verticalLabelPosition=bottom;verticalAlign=top;align=center;html=1;fontSize=12;fontStyle=0;aspect=fixed;pointerEvents=1;shape=mxgraph.aws4.gear;" parent="1" vertex="1">
          <mxGeometry x="135" y="-178" width="34" height="34" as="geometry" />
        </mxCell>
        <mxCell id="Xh5SDCKvO4uXyYsXdFf4-20" value="&lt;font style=&quot;font-size: 16px; font-weight: normal;&quot;&gt;Änderungen verwerfen&lt;/font&gt;" style="strokeWidth=1;shadow=0;dashed=0;align=center;html=1;shape=mxgraph.mockup.buttons.button;strokeColor=#b85450;mainText=;buttonStyle=round;fontSize=17;fontStyle=1;fillColor=#f8cecc;whiteSpace=wrap;" parent="1" vertex="1">
          <mxGeometry x="299" y="39" width="206" height="30" as="geometry" />
        </mxCell>
        <mxCell id="GL-Xzq4RdFvb2JdrkEgy-1" value="Anzeige der Gesamt-Terminliste analog zu &quot;Buchende&quot;" style="rounded=0;whiteSpace=wrap;html=1;fillColor=#d5e8d4;strokeColor=#82b366;" parent="1" vertex="1">
          <mxGeometry x="-770" y="-124.2" width="530" height="60" as="geometry" />
        </mxCell>
        <mxCell id="55VcoNajXq4q3Io8COJS-1" value="&lt;div&gt;Nach dem Speichern sollte angezeigt werden, dass die Änderungen erfolgreich übernommen wurden.&lt;/div&gt;&lt;div&gt;Beim Speichern wird auch überprüft, ob alle Felder, die erforderlich sind, gesetzt sind.&lt;br&gt;&lt;/div&gt;&lt;div&gt;&lt;br&gt;&lt;/div&gt;" style="text;whiteSpace=wrap;html=1;fillColor=#fff2cc;strokeColor=#d6b656;" parent="1" vertex="1">
          <mxGeometry x="740" y="-64.2" width="290" height="80" as="geometry" />
        </mxCell>
        <mxCell id="hpw4elqOgBrOuqeuDUK0-1" value="Service-Team: möchte ich eine Übersicht mit allen Ressourcenbuchungen je Zeitslot haben" style="text;whiteSpace=wrap;" vertex="1" parent="1">
          <mxGeometry x="-724.9999999999999" y="-47" width="440" height="40" as="geometry" />
        </mxCell>
      </root>
    </mxGraphModel>
  </diagram>
  <diagram id="BglXSwdr8Xh2L_dNbrc3" name="Checkliste">
    <mxGraphModel dx="1658" dy="996" grid="1" gridSize="10" guides="1" tooltips="1" connect="1" arrows="1" fold="1" page="1" pageScale="1" pageWidth="827" pageHeight="1169" math="0" shadow="0">
      <root>
        <mxCell id="0" />
        <mxCell id="1" parent="0" />
        <mxCell id="_MgtztC6cVn_hH0Jal40-1" value="&lt;font style=&quot;font-size: 24px;&quot; color=&quot;#ffffff&quot;&gt;&lt;b&gt;Mockup Checkliste: SERVICE TEAM&lt;/b&gt;&lt;/font&gt;" style="rounded=0;whiteSpace=wrap;html=1;fillColor=#7EA6E0;strokeColor=#7EA6E0;" vertex="1" parent="1">
          <mxGeometry y="20" width="827" height="70" as="geometry" />
        </mxCell>
        <mxCell id="_MgtztC6cVn_hH0Jal40-2" value="" style="rounded=0;whiteSpace=wrap;html=1;" vertex="1" parent="1">
          <mxGeometry x="200" y="120" width="470" height="810" as="geometry" />
        </mxCell>
        <mxCell id="_MgtztC6cVn_hH0Jal40-3" value="Checkliste: Service Team" style="rounded=0;whiteSpace=wrap;html=1;" vertex="1" parent="1">
          <mxGeometry x="220" y="130" width="410" height="30" as="geometry" />
        </mxCell>
        <mxCell id="_MgtztC6cVn_hH0Jal40-4" value="&lt;p class=&quot;MsoNormal&quot;&gt;&lt;b style=&quot;mso-bidi-font-weight:normal&quot;&gt;&lt;font face=&quot;omEwTt3iOOV243laJ29D&quot;&gt;Prüfungsübersicht (aus Prüfungstermin)&lt;/font&gt;&lt;/b&gt;&lt;/p&gt;&lt;p class=&quot;MsoNormal&quot;&gt;&lt;font face=&quot;omEwTt3iOOV243laJ29D&quot;&gt;Prüfungstitel: Testprüfung&lt;br&gt;&lt;/font&gt;&lt;span style=&quot;font-family: omEwTt3iOOV243laJ29D; background-color: initial;&quot;&gt;Datum: 01.01.2025&lt;br&gt;&lt;/span&gt;&lt;span style=&quot;font-family: omEwTt3iOOV243laJ29D; background-color: initial;&quot;&gt;Uhrzeit: 8-10&lt;br&gt;&lt;/span&gt;&lt;span style=&quot;font-family: omEwTt3iOOV243laJ29D; background-color: initial;&quot;&gt;Eingetragene Lehrperson: Name&lt;br&gt;&lt;/span&gt;&lt;span style=&quot;font-family: omEwTt3iOOV243laJ29D; background-color: initial;&quot;&gt;Prüfungssystem: Prüfungsmoodle/EvaExam&lt;br&gt;&lt;/span&gt;&lt;span style=&quot;font-family: omEwTt3iOOV243laJ29D; background-color: initial;&quot;&gt;Ort: E-Prüfungsraum/@home etc.&lt;br&gt;&lt;/span&gt;&lt;span style=&quot;background-color: initial; font-family: omEwTt3iOOV243laJ29D;&quot;&gt;Teilnehmendenzahl: 78&lt;br&gt;&lt;/span&gt;&lt;span style=&quot;background-color: initial; font-family: omEwTt3iOOV243laJ29D;&quot;&gt;Zusatzausstattung : Excel, Headsets&lt;br&gt;&lt;/span&gt;&lt;span style=&quot;background-color: initial; font-family: omEwTt3iOOV243laJ29D;&quot;&gt;Support vor Ort: Name&lt;/span&gt;&lt;/p&gt;&lt;div&gt;&lt;br&gt;&lt;/div&gt;" style="rounded=0;whiteSpace=wrap;html=1;align=left;" vertex="1" parent="1">
          <mxGeometry x="220" y="180" width="410" height="180" as="geometry" />
        </mxCell>
        <mxCell id="_MgtztC6cVn_hH0Jal40-5" value="" style="shape=table;startSize=0;container=1;collapsible=0;childLayout=tableLayout;align=left;" vertex="1" parent="1">
          <mxGeometry x="220" y="420" width="410" height="259" as="geometry" />
        </mxCell>
        <mxCell id="_MgtztC6cVn_hH0Jal40-6" value="" style="shape=tableRow;horizontal=0;startSize=0;swimlaneHead=0;swimlaneBody=0;strokeColor=inherit;top=0;left=0;bottom=0;right=0;collapsible=0;dropTarget=0;fillColor=none;points=[[0,0.5],[1,0.5]];portConstraint=eastwest;align=left;" vertex="1" parent="_MgtztC6cVn_hH0Jal40-5">
          <mxGeometry width="410" height="43" as="geometry" />
        </mxCell>
        <mxCell id="_MgtztC6cVn_hH0Jal40-7" value="" style="shape=partialRectangle;html=1;whiteSpace=wrap;connectable=0;strokeColor=inherit;overflow=hidden;fillColor=none;top=0;left=0;bottom=0;right=0;pointerEvents=1;" vertex="1" parent="_MgtztC6cVn_hH0Jal40-6">
          <mxGeometry width="50" height="43" as="geometry">
            <mxRectangle width="50" height="43" as="alternateBounds" />
          </mxGeometry>
        </mxCell>
        <mxCell id="_MgtztC6cVn_hH0Jal40-8" value="&lt;span style=&quot;font-size:12.0pt;font-family:Akkurat-Light;&lt;br/&gt;mso-fareast-font-family:&amp;quot;Times New Roman&amp;quot;;mso-fareast-theme-font:minor-fareast;&lt;br/&gt;mso-bidi-font-family:&amp;quot;Times New Roman&amp;quot;;mso-ansi-language:DE;mso-fareast-language:&lt;br/&gt;DE;mso-bidi-language:AR-SA&quot;&gt;Zusatzsoftware installiert&lt;/span&gt;" style="shape=partialRectangle;html=1;whiteSpace=wrap;connectable=0;strokeColor=inherit;overflow=hidden;fillColor=none;top=0;left=0;bottom=0;right=0;pointerEvents=1;align=left;" vertex="1" parent="_MgtztC6cVn_hH0Jal40-6">
          <mxGeometry x="50" width="230" height="43" as="geometry">
            <mxRectangle width="230" height="43" as="alternateBounds" />
          </mxGeometry>
        </mxCell>
        <mxCell id="_MgtztC6cVn_hH0Jal40-9" value="Notiz" style="shape=partialRectangle;html=1;whiteSpace=wrap;connectable=0;strokeColor=inherit;overflow=hidden;fillColor=none;top=0;left=0;bottom=0;right=0;pointerEvents=1;" vertex="1" parent="_MgtztC6cVn_hH0Jal40-6">
          <mxGeometry x="280" width="130" height="43" as="geometry">
            <mxRectangle width="130" height="43" as="alternateBounds" />
          </mxGeometry>
        </mxCell>
        <mxCell id="_MgtztC6cVn_hH0Jal40-10" value="" style="shape=tableRow;horizontal=0;startSize=0;swimlaneHead=0;swimlaneBody=0;strokeColor=inherit;top=0;left=0;bottom=0;right=0;collapsible=0;dropTarget=0;fillColor=none;points=[[0,0.5],[1,0.5]];portConstraint=eastwest;" vertex="1" parent="_MgtztC6cVn_hH0Jal40-5">
          <mxGeometry y="43" width="410" height="44" as="geometry" />
        </mxCell>
        <mxCell id="_MgtztC6cVn_hH0Jal40-11" value="" style="shape=partialRectangle;html=1;whiteSpace=wrap;connectable=0;strokeColor=inherit;overflow=hidden;fillColor=none;top=0;left=0;bottom=0;right=0;pointerEvents=1;" vertex="1" parent="_MgtztC6cVn_hH0Jal40-10">
          <mxGeometry width="50" height="44" as="geometry">
            <mxRectangle width="50" height="44" as="alternateBounds" />
          </mxGeometry>
        </mxCell>
        <mxCell id="_MgtztC6cVn_hH0Jal40-12" value="&lt;span style=&quot;font-size:12.0pt;font-family:Akkurat-Light;&lt;br/&gt;mso-fareast-font-family:&amp;quot;Times New Roman&amp;quot;;mso-fareast-theme-font:minor-fareast;&lt;br/&gt;mso-bidi-font-family:&amp;quot;Times New Roman&amp;quot;;mso-ansi-language:DE;mso-fareast-language:&lt;br/&gt;DE;mso-bidi-language:AR-SA&quot;&gt;Prüfungs-Kurs vorhanden&lt;/span&gt;" style="shape=partialRectangle;html=1;whiteSpace=wrap;connectable=0;strokeColor=inherit;overflow=hidden;fillColor=none;top=0;left=0;bottom=0;right=0;pointerEvents=1;align=left;" vertex="1" parent="_MgtztC6cVn_hH0Jal40-10">
          <mxGeometry x="50" width="230" height="44" as="geometry">
            <mxRectangle width="230" height="44" as="alternateBounds" />
          </mxGeometry>
        </mxCell>
        <mxCell id="_MgtztC6cVn_hH0Jal40-13" value="Kurslink etc." style="shape=partialRectangle;html=1;whiteSpace=wrap;connectable=0;strokeColor=inherit;overflow=hidden;fillColor=none;top=0;left=0;bottom=0;right=0;pointerEvents=1;" vertex="1" parent="_MgtztC6cVn_hH0Jal40-10">
          <mxGeometry x="280" width="130" height="44" as="geometry">
            <mxRectangle width="130" height="44" as="alternateBounds" />
          </mxGeometry>
        </mxCell>
        <mxCell id="_MgtztC6cVn_hH0Jal40-14" value="" style="shape=tableRow;horizontal=0;startSize=0;swimlaneHead=0;swimlaneBody=0;strokeColor=inherit;top=0;left=0;bottom=0;right=0;collapsible=0;dropTarget=0;fillColor=none;points=[[0,0.5],[1,0.5]];portConstraint=eastwest;" vertex="1" parent="_MgtztC6cVn_hH0Jal40-5">
          <mxGeometry y="87" width="410" height="43" as="geometry" />
        </mxCell>
        <mxCell id="_MgtztC6cVn_hH0Jal40-15" value="" style="shape=partialRectangle;html=1;whiteSpace=wrap;connectable=0;strokeColor=inherit;overflow=hidden;fillColor=none;top=0;left=0;bottom=0;right=0;pointerEvents=1;" vertex="1" parent="_MgtztC6cVn_hH0Jal40-14">
          <mxGeometry width="50" height="43" as="geometry">
            <mxRectangle width="50" height="43" as="alternateBounds" />
          </mxGeometry>
        </mxCell>
        <mxCell id="_MgtztC6cVn_hH0Jal40-16" value="&#xa;&lt;span style=&quot;font-size:12.0pt;font-family:Akkurat-Light;&#xa;mso-fareast-font-family:&amp;quot;Times New Roman&amp;quot;;mso-fareast-theme-font:minor-fareast;&#xa;mso-bidi-font-family:&amp;quot;Times New Roman&amp;quot;;mso-ansi-language:DE;mso-fareast-language:&#xa;DE;mso-bidi-language:AR-SA&quot;&gt;Audioqualität gecheckt &lt;/span&gt;&#xa;&#xa;&#xa;&#xa;" style="shape=partialRectangle;html=1;whiteSpace=wrap;connectable=0;strokeColor=inherit;overflow=hidden;fillColor=none;top=0;left=0;bottom=0;right=0;pointerEvents=1;align=left;" vertex="1" parent="_MgtztC6cVn_hH0Jal40-14">
          <mxGeometry x="50" width="230" height="43" as="geometry">
            <mxRectangle width="230" height="43" as="alternateBounds" />
          </mxGeometry>
        </mxCell>
        <mxCell id="_MgtztC6cVn_hH0Jal40-17" style="shape=partialRectangle;html=1;whiteSpace=wrap;connectable=0;strokeColor=inherit;overflow=hidden;fillColor=none;top=0;left=0;bottom=0;right=0;pointerEvents=1;" vertex="1" parent="_MgtztC6cVn_hH0Jal40-14">
          <mxGeometry x="280" width="130" height="43" as="geometry">
            <mxRectangle width="130" height="43" as="alternateBounds" />
          </mxGeometry>
        </mxCell>
        <mxCell id="_MgtztC6cVn_hH0Jal40-18" style="shape=tableRow;horizontal=0;startSize=0;swimlaneHead=0;swimlaneBody=0;strokeColor=inherit;top=0;left=0;bottom=0;right=0;collapsible=0;dropTarget=0;fillColor=none;points=[[0,0.5],[1,0.5]];portConstraint=eastwest;" vertex="1" parent="_MgtztC6cVn_hH0Jal40-5">
          <mxGeometry y="130" width="410" height="43" as="geometry" />
        </mxCell>
        <mxCell id="_MgtztC6cVn_hH0Jal40-19" style="shape=partialRectangle;html=1;whiteSpace=wrap;connectable=0;strokeColor=inherit;overflow=hidden;fillColor=none;top=0;left=0;bottom=0;right=0;pointerEvents=1;" vertex="1" parent="_MgtztC6cVn_hH0Jal40-18">
          <mxGeometry width="50" height="43" as="geometry">
            <mxRectangle width="50" height="43" as="alternateBounds" />
          </mxGeometry>
        </mxCell>
        <mxCell id="_MgtztC6cVn_hH0Jal40-20" value="&lt;span style=&quot;font-size:12.0pt;font-family:Akkurat-Light;&lt;br/&gt;mso-fareast-font-family:&amp;quot;Times New Roman&amp;quot;;mso-fareast-theme-font:minor-fareast;&lt;br/&gt;mso-bidi-font-family:&amp;quot;Times New Roman&amp;quot;;mso-ansi-language:DE;mso-fareast-language:&lt;br/&gt;DE;mso-bidi-language:AR-SA&quot;&gt;Reminder Mail 1 Woche vorher (automatisch?) an Lehrenden&lt;/span&gt;" style="shape=partialRectangle;html=1;whiteSpace=wrap;connectable=0;strokeColor=inherit;overflow=hidden;fillColor=none;top=0;left=0;bottom=0;right=0;pointerEvents=1;align=left;" vertex="1" parent="_MgtztC6cVn_hH0Jal40-18">
          <mxGeometry x="50" width="230" height="43" as="geometry">
            <mxRectangle width="230" height="43" as="alternateBounds" />
          </mxGeometry>
        </mxCell>
        <mxCell id="_MgtztC6cVn_hH0Jal40-21" style="shape=partialRectangle;html=1;whiteSpace=wrap;connectable=0;strokeColor=inherit;overflow=hidden;fillColor=none;top=0;left=0;bottom=0;right=0;pointerEvents=1;" vertex="1" parent="_MgtztC6cVn_hH0Jal40-18">
          <mxGeometry x="280" width="130" height="43" as="geometry">
            <mxRectangle width="130" height="43" as="alternateBounds" />
          </mxGeometry>
        </mxCell>
        <mxCell id="_MgtztC6cVn_hH0Jal40-22" style="shape=tableRow;horizontal=0;startSize=0;swimlaneHead=0;swimlaneBody=0;strokeColor=inherit;top=0;left=0;bottom=0;right=0;collapsible=0;dropTarget=0;fillColor=none;points=[[0,0.5],[1,0.5]];portConstraint=eastwest;" vertex="1" parent="_MgtztC6cVn_hH0Jal40-5">
          <mxGeometry y="173" width="410" height="43" as="geometry" />
        </mxCell>
        <mxCell id="_MgtztC6cVn_hH0Jal40-23" style="shape=partialRectangle;html=1;whiteSpace=wrap;connectable=0;strokeColor=inherit;overflow=hidden;fillColor=none;top=0;left=0;bottom=0;right=0;pointerEvents=1;" vertex="1" parent="_MgtztC6cVn_hH0Jal40-22">
          <mxGeometry width="50" height="43" as="geometry">
            <mxRectangle width="50" height="43" as="alternateBounds" />
          </mxGeometry>
        </mxCell>
        <mxCell id="_MgtztC6cVn_hH0Jal40-24" value="" style="shape=partialRectangle;html=1;whiteSpace=wrap;connectable=0;strokeColor=inherit;overflow=hidden;fillColor=none;top=0;left=0;bottom=0;right=0;pointerEvents=1;align=left;horizontal=1;" vertex="1" parent="_MgtztC6cVn_hH0Jal40-22">
          <mxGeometry x="50" width="230" height="43" as="geometry">
            <mxRectangle width="230" height="43" as="alternateBounds" />
          </mxGeometry>
        </mxCell>
        <mxCell id="_MgtztC6cVn_hH0Jal40-25" value="" style="shape=partialRectangle;html=1;whiteSpace=wrap;connectable=0;strokeColor=inherit;overflow=hidden;fillColor=none;top=0;left=0;bottom=0;right=0;pointerEvents=1;" vertex="1" parent="_MgtztC6cVn_hH0Jal40-22">
          <mxGeometry x="280" width="130" height="43" as="geometry">
            <mxRectangle width="130" height="43" as="alternateBounds" />
          </mxGeometry>
        </mxCell>
        <mxCell id="_MgtztC6cVn_hH0Jal40-26" style="shape=tableRow;horizontal=0;startSize=0;swimlaneHead=0;swimlaneBody=0;strokeColor=inherit;top=0;left=0;bottom=0;right=0;collapsible=0;dropTarget=0;fillColor=none;points=[[0,0.5],[1,0.5]];portConstraint=eastwest;" vertex="1" parent="_MgtztC6cVn_hH0Jal40-5">
          <mxGeometry y="216" width="410" height="43" as="geometry" />
        </mxCell>
        <mxCell id="_MgtztC6cVn_hH0Jal40-27" style="shape=partialRectangle;html=1;whiteSpace=wrap;connectable=0;strokeColor=inherit;overflow=hidden;fillColor=none;top=0;left=0;bottom=0;right=0;pointerEvents=1;" vertex="1" parent="_MgtztC6cVn_hH0Jal40-26">
          <mxGeometry width="50" height="43" as="geometry">
            <mxRectangle width="50" height="43" as="alternateBounds" />
          </mxGeometry>
        </mxCell>
        <mxCell id="_MgtztC6cVn_hH0Jal40-28" value="" style="shape=partialRectangle;html=1;whiteSpace=wrap;connectable=0;strokeColor=inherit;overflow=hidden;fillColor=none;top=0;left=0;bottom=0;right=0;pointerEvents=1;" vertex="1" parent="_MgtztC6cVn_hH0Jal40-26">
          <mxGeometry x="50" width="230" height="43" as="geometry">
            <mxRectangle width="230" height="43" as="alternateBounds" />
          </mxGeometry>
        </mxCell>
        <mxCell id="_MgtztC6cVn_hH0Jal40-29" style="shape=partialRectangle;html=1;whiteSpace=wrap;connectable=0;strokeColor=inherit;overflow=hidden;fillColor=none;top=0;left=0;bottom=0;right=0;pointerEvents=1;" vertex="1" parent="_MgtztC6cVn_hH0Jal40-26">
          <mxGeometry x="280" width="130" height="43" as="geometry">
            <mxRectangle width="130" height="43" as="alternateBounds" />
          </mxGeometry>
        </mxCell>
        <mxCell id="_MgtztC6cVn_hH0Jal40-30" value="" style="rounded=0;whiteSpace=wrap;html=1;" vertex="1" parent="1">
          <mxGeometry x="220" y="360" width="410" height="20" as="geometry" />
        </mxCell>
        <mxCell id="_MgtztC6cVn_hH0Jal40-31" value="50%" style="rounded=0;whiteSpace=wrap;html=1;strokeColor=default;fillColor=#D5E8D4;" vertex="1" parent="1">
          <mxGeometry x="220" y="360" width="211" height="20" as="geometry" />
        </mxCell>
        <mxCell id="_MgtztC6cVn_hH0Jal40-32" value="" style="rounded=0;whiteSpace=wrap;html=1;" vertex="1" parent="1">
          <mxGeometry x="230" y="430" width="20" height="20" as="geometry" />
        </mxCell>
        <mxCell id="_MgtztC6cVn_hH0Jal40-33" value="" style="verticalLabelPosition=bottom;verticalAlign=top;html=1;shape=mxgraph.basic.tick;fillColor=#d5e8d4;strokeColor=#82b366;" vertex="1" parent="1">
          <mxGeometry x="230" y="430" width="20" height="20" as="geometry" />
        </mxCell>
        <mxCell id="_MgtztC6cVn_hH0Jal40-34" value="" style="rounded=0;whiteSpace=wrap;html=1;" vertex="1" parent="1">
          <mxGeometry x="230" y="470" width="20" height="20" as="geometry" />
        </mxCell>
        <mxCell id="_MgtztC6cVn_hH0Jal40-35" value="" style="rounded=0;whiteSpace=wrap;html=1;" vertex="1" parent="1">
          <mxGeometry x="230" y="520" width="20" height="20" as="geometry" />
        </mxCell>
        <mxCell id="_MgtztC6cVn_hH0Jal40-36" value="" style="rounded=0;whiteSpace=wrap;html=1;" vertex="1" parent="1">
          <mxGeometry x="230" y="565" width="20" height="20" as="geometry" />
        </mxCell>
        <mxCell id="_MgtztC6cVn_hH0Jal40-37" value="" style="rounded=0;whiteSpace=wrap;html=1;" vertex="1" parent="1">
          <mxGeometry x="230" y="610" width="20" height="20" as="geometry" />
        </mxCell>
        <mxCell id="_MgtztC6cVn_hH0Jal40-38" value="" style="rounded=0;whiteSpace=wrap;html=1;" vertex="1" parent="1">
          <mxGeometry x="230" y="650" width="20" height="20" as="geometry" />
        </mxCell>
        <mxCell id="_MgtztC6cVn_hH0Jal40-39" value="" style="verticalLabelPosition=bottom;verticalAlign=top;html=1;shape=mxgraph.basic.tick;fillColor=#d5e8d4;strokeColor=#82b366;" vertex="1" parent="1">
          <mxGeometry x="230" y="470" width="20" height="20" as="geometry" />
        </mxCell>
        <mxCell id="_MgtztC6cVn_hH0Jal40-40" value="" style="verticalLabelPosition=bottom;verticalAlign=top;html=1;shape=mxgraph.basic.tick;fillColor=#d5e8d4;strokeColor=#82b366;" vertex="1" parent="1">
          <mxGeometry x="230" y="520" width="20" height="20" as="geometry" />
        </mxCell>
        <mxCell id="_MgtztC6cVn_hH0Jal40-41" value="Export nach PDF/Excel/etc." style="rounded=1;whiteSpace=wrap;html=1;fillColor=#dae8fc;strokeColor=#6c8ebf;" vertex="1" parent="1">
          <mxGeometry x="220" y="870" width="160" height="30" as="geometry" />
        </mxCell>
        <mxCell id="_MgtztC6cVn_hH0Jal40-42" value="&lt;b&gt;TO-Do´s Service Team bis zum Prüfungstermin&lt;/b&gt;" style="rounded=0;whiteSpace=wrap;html=1;align=left;" vertex="1" parent="1">
          <mxGeometry x="220" y="400" width="410" height="20" as="geometry" />
        </mxCell>
        <mxCell id="_MgtztC6cVn_hH0Jal40-43" value="" style="shape=table;startSize=0;container=1;collapsible=0;childLayout=tableLayout;align=left;" vertex="1" parent="1">
          <mxGeometry x="220" y="710" width="410" height="130" as="geometry" />
        </mxCell>
        <mxCell id="_MgtztC6cVn_hH0Jal40-44" value="" style="shape=tableRow;horizontal=0;startSize=0;swimlaneHead=0;swimlaneBody=0;strokeColor=inherit;top=0;left=0;bottom=0;right=0;collapsible=0;dropTarget=0;fillColor=none;points=[[0,0.5],[1,0.5]];portConstraint=eastwest;align=left;" vertex="1" parent="_MgtztC6cVn_hH0Jal40-43">
          <mxGeometry width="410" height="43" as="geometry" />
        </mxCell>
        <mxCell id="_MgtztC6cVn_hH0Jal40-45" value="" style="shape=partialRectangle;html=1;whiteSpace=wrap;connectable=0;strokeColor=inherit;overflow=hidden;fillColor=none;top=0;left=0;bottom=0;right=0;pointerEvents=1;" vertex="1" parent="_MgtztC6cVn_hH0Jal40-44">
          <mxGeometry width="50" height="43" as="geometry">
            <mxRectangle width="50" height="43" as="alternateBounds" />
          </mxGeometry>
        </mxCell>
        <mxCell id="_MgtztC6cVn_hH0Jal40-46" value="&lt;span style=&quot;font-size:12.0pt;font-family:Akkurat-Light;&lt;br/&gt;mso-fareast-font-family:&amp;quot;Times New Roman&amp;quot;;mso-fareast-theme-font:minor-fareast;&lt;br/&gt;mso-bidi-font-family:&amp;quot;Times New Roman&amp;quot;;mso-ansi-language:DE;mso-fareast-language:&lt;br/&gt;DE;mso-bidi-language:AR-SA&quot;&gt;Statistische Auswertung&lt;/span&gt;" style="shape=partialRectangle;html=1;whiteSpace=wrap;connectable=0;strokeColor=inherit;overflow=hidden;fillColor=none;top=0;left=0;bottom=0;right=0;pointerEvents=1;align=left;" vertex="1" parent="_MgtztC6cVn_hH0Jal40-44">
          <mxGeometry x="50" width="230" height="43" as="geometry">
            <mxRectangle width="230" height="43" as="alternateBounds" />
          </mxGeometry>
        </mxCell>
        <mxCell id="_MgtztC6cVn_hH0Jal40-47" value="Notiz" style="shape=partialRectangle;html=1;whiteSpace=wrap;connectable=0;strokeColor=inherit;overflow=hidden;fillColor=none;top=0;left=0;bottom=0;right=0;pointerEvents=1;" vertex="1" parent="_MgtztC6cVn_hH0Jal40-44">
          <mxGeometry x="280" width="130" height="43" as="geometry">
            <mxRectangle width="130" height="43" as="alternateBounds" />
          </mxGeometry>
        </mxCell>
        <mxCell id="_MgtztC6cVn_hH0Jal40-48" value="" style="shape=tableRow;horizontal=0;startSize=0;swimlaneHead=0;swimlaneBody=0;strokeColor=inherit;top=0;left=0;bottom=0;right=0;collapsible=0;dropTarget=0;fillColor=none;points=[[0,0.5],[1,0.5]];portConstraint=eastwest;" vertex="1" parent="_MgtztC6cVn_hH0Jal40-43">
          <mxGeometry y="43" width="410" height="44" as="geometry" />
        </mxCell>
        <mxCell id="_MgtztC6cVn_hH0Jal40-49" value="" style="shape=partialRectangle;html=1;whiteSpace=wrap;connectable=0;strokeColor=inherit;overflow=hidden;fillColor=none;top=0;left=0;bottom=0;right=0;pointerEvents=1;" vertex="1" parent="_MgtztC6cVn_hH0Jal40-48">
          <mxGeometry width="50" height="44" as="geometry">
            <mxRectangle width="50" height="44" as="alternateBounds" />
          </mxGeometry>
        </mxCell>
        <mxCell id="_MgtztC6cVn_hH0Jal40-50" value="" style="shape=partialRectangle;html=1;whiteSpace=wrap;connectable=0;strokeColor=inherit;overflow=hidden;fillColor=none;top=0;left=0;bottom=0;right=0;pointerEvents=1;align=left;" vertex="1" parent="_MgtztC6cVn_hH0Jal40-48">
          <mxGeometry x="50" width="230" height="44" as="geometry">
            <mxRectangle width="230" height="44" as="alternateBounds" />
          </mxGeometry>
        </mxCell>
        <mxCell id="_MgtztC6cVn_hH0Jal40-51" value="" style="shape=partialRectangle;html=1;whiteSpace=wrap;connectable=0;strokeColor=inherit;overflow=hidden;fillColor=none;top=0;left=0;bottom=0;right=0;pointerEvents=1;" vertex="1" parent="_MgtztC6cVn_hH0Jal40-48">
          <mxGeometry x="280" width="130" height="44" as="geometry">
            <mxRectangle width="130" height="44" as="alternateBounds" />
          </mxGeometry>
        </mxCell>
        <mxCell id="_MgtztC6cVn_hH0Jal40-52" value="" style="shape=tableRow;horizontal=0;startSize=0;swimlaneHead=0;swimlaneBody=0;strokeColor=inherit;top=0;left=0;bottom=0;right=0;collapsible=0;dropTarget=0;fillColor=none;points=[[0,0.5],[1,0.5]];portConstraint=eastwest;" vertex="1" parent="_MgtztC6cVn_hH0Jal40-43">
          <mxGeometry y="87" width="410" height="43" as="geometry" />
        </mxCell>
        <mxCell id="_MgtztC6cVn_hH0Jal40-53" value="" style="shape=partialRectangle;html=1;whiteSpace=wrap;connectable=0;strokeColor=inherit;overflow=hidden;fillColor=none;top=0;left=0;bottom=0;right=0;pointerEvents=1;" vertex="1" parent="_MgtztC6cVn_hH0Jal40-52">
          <mxGeometry width="50" height="43" as="geometry">
            <mxRectangle width="50" height="43" as="alternateBounds" />
          </mxGeometry>
        </mxCell>
        <mxCell id="_MgtztC6cVn_hH0Jal40-54" value="" style="shape=partialRectangle;html=1;whiteSpace=wrap;connectable=0;strokeColor=inherit;overflow=hidden;fillColor=none;top=0;left=0;bottom=0;right=0;pointerEvents=1;align=left;" vertex="1" parent="_MgtztC6cVn_hH0Jal40-52">
          <mxGeometry x="50" width="230" height="43" as="geometry">
            <mxRectangle width="230" height="43" as="alternateBounds" />
          </mxGeometry>
        </mxCell>
        <mxCell id="_MgtztC6cVn_hH0Jal40-55" style="shape=partialRectangle;html=1;whiteSpace=wrap;connectable=0;strokeColor=inherit;overflow=hidden;fillColor=none;top=0;left=0;bottom=0;right=0;pointerEvents=1;" vertex="1" parent="_MgtztC6cVn_hH0Jal40-52">
          <mxGeometry x="280" width="130" height="43" as="geometry">
            <mxRectangle width="130" height="43" as="alternateBounds" />
          </mxGeometry>
        </mxCell>
        <mxCell id="_MgtztC6cVn_hH0Jal40-56" value="&lt;b&gt;Kategorie 2&lt;/b&gt;" style="rounded=0;whiteSpace=wrap;html=1;align=left;" vertex="1" parent="1">
          <mxGeometry x="220" y="690" width="410" height="20" as="geometry" />
        </mxCell>
      </root>
    </mxGraphModel>
  </diagram>
</mxfile>
